<?xml version="1.0" encoding="utf-8"?>
<!-- Generator: Adobe Illustrator 19.2.1, SVG Export Plug-In . SVG Version: 6.00 Build 0)  -->
<svg version="1.1" id="Layer_1" xmlns="http://www.w3.org/2000/svg" xmlns:xlink="http://www.w3.org/1999/xlink" x="0px" y="0px"
	 viewBox="0 0 28.5 28.5" style="enable-background:new 0 0 28.5 28.5;" xml:space="preserve">
<style type="text/css">
	.st0{fill:#FFFFFF;}
</style>
<path class="st0" d="M27.7,12.2L25.3,12c-0.3-1.5-0.9-2.8-1.7-4l1.5-1.8c0.3-0.3,0.3-0.8,0-1.1l-1.7-1.7c-0.3-0.3-0.8-0.3-1.1,0
	l-1.8,1.5c-1.2-0.8-2.6-1.4-4-1.7l-0.2-2.4c0-0.4-0.4-0.8-0.8-0.8H13c-0.4,0-0.8,0.4-0.8,0.8L12,3.2C10.5,3.4,9.2,4,8,4.8L6.1,3.3
	C5.8,3,5.3,3,5,3.3L3.3,5C3,5.3,3,5.8,3.3,6.1L4.8,8C4,9.2,3.4,10.5,3.2,12l-2.4,0.2C0.4,12.2,0,12.6,0,13v2.4
	c0,0.4,0.4,0.8,0.8,0.8l2.4,0.2c0.3,1.5,0.9,2.8,1.7,4l-1.5,1.8c-0.3,0.3-0.3,0.8,0,1.1L5,25.1c0.3,0.3,0.8,0.3,1.1,0L8,23.6
	c1.2,0.8,2.6,1.4,4,1.7l0.2,2.4c0,0.4,0.4,0.8,0.8,0.8h2.4c0.4,0,0.8-0.4,0.8-0.8l0.2-2.4c1.5-0.3,2.8-0.9,4-1.7l1.8,1.5
	c0.3,0.3,0.8,0.3,1.1,0l1.7-1.7c0.3-0.3,0.3-0.8,0-1.1l-1.5-1.8c0.8-1.2,1.4-2.6,1.7-4l2.4-0.2c0.4,0,0.8-0.4,0.8-0.8V13
	C28.5,12.6,28.1,12.2,27.7,12.2z M14.2,19.1c-2.7,0-4.8-2.2-4.8-4.8c0-2.7,2.2-4.8,4.8-4.8c2.7,0,4.8,2.2,4.8,4.8
	C19.1,16.9,16.9,19.1,14.2,19.1z"/>
</svg>
