<?xml version="1.0" encoding="utf-8"?>
<!-- Generator: Adobe Illustrator 21.0.0, SVG Export Plug-In . SVG Version: 6.00 Build 0)  -->
<svg version="1.1" id="Layer_1" xmlns="http://www.w3.org/2000/svg" xmlns:xlink="http://www.w3.org/1999/xlink" x="0px" y="0px"
	 viewBox="0 0 306.1 123.7" style="enable-background:new 0 0 306.1 123.7;" xml:space="preserve">
<style type="text/css">
	.st0{fill:#93488B;}
	.st1{fill:#FFE87C;}
	.st2{opacity:0.5;fill:#B52B85;enable-background:new    ;}
	.st3{fill:#B52B85;}
	.st4{opacity:0.5;fill:#FFFFFF;enable-background:new    ;}
	.st5{opacity:0.6;fill:#FFFFFF;enable-background:new    ;}
	.st6{fill:#26CFCE;}
	.st7{fill:#CFFF9E;}
	.st8{fill:#FF7E64;}
	.st9{fill:#72006F;}
	.st10{opacity:0.75;fill:none;stroke:#FFFFFF;stroke-miterlimit:10;enable-background:new    ;}
</style>
<circle class="st0" cx="96.885" cy="29" r="7.135"/>
<circle class="st1" cx="30.132" cy="98.739" r="7.882"/>
<g>
	<circle class="st2" cx="101.663" cy="85.337" r="18.837"/>
	<circle class="st3" cx="101.726" cy="85.4" r="9.359"/>
	<circle class="st2" cx="101.929" cy="85.4" r="14.79"/>
</g>
<ellipse transform="matrix(0.1706 -0.9853 0.9853 0.1706 111.6168 241.6656)" class="st4" cx="199.361" cy="54.531" rx="27.527" ry="27.527"/>
<ellipse transform="matrix(0.1706 -0.9853 0.9853 0.1706 111.2372 241.887)" class="st5" cx="199.302" cy="54.867" rx="5.419" ry="5.419"/>
<ellipse transform="matrix(0.1706 -0.9853 0.9853 0.1706 127.5012 223.3241)" class="st6" cx="196.408" cy="35.925" rx="4.602" ry="4.602"/>
<ellipse transform="matrix(0.1706 -0.9853 0.9853 0.1706 136.0293 238.2935)" class="st0" cx="209.564" cy="38.344" rx="4.602" ry="4.602"/>
<ellipse transform="matrix(0.1706 -0.9853 0.9853 0.1706 120.0872 263.1016)" class="st7" cx="216.329" cy="60.218" rx="4.602" ry="4.602"/>
<ellipse transform="matrix(0.1706 -0.9853 0.9853 0.1706 102.5732 263.5122)" class="st8" cx="207.816" cy="70.826" rx="4.602" ry="4.602"/>
<ellipse transform="matrix(0.1706 -0.9853 0.9853 0.1706 91.256 251.4917)" class="st0" cx="195.017" cy="71.539" rx="4.602" ry="4.602"/>
<ellipse transform="matrix(0.1706 -0.9853 0.9853 0.1706 95.7455 223.3125)" class="st9" cx="180.523" cy="54.782" rx="4.602" ry="4.602"/>
<ellipse transform="matrix(0.1706 -0.9853 0.9853 0.1706 111.2503 218.3736)" class="st1" cx="185.342" cy="43.103" rx="4.602" ry="4.602"/>
<circle class="st7" cx="276.366" cy="102.512" r="8.488"/>
<ellipse transform="matrix(0.1706 -0.9853 0.9853 0.1706 111.2103 241.5584)" class="st10" cx="199.094" cy="54.719" rx="27.527" ry="27.527"/>
<ellipse transform="matrix(0.1706 -0.9853 0.9853 0.1706 143.3861 256.8647)" class="st6" cx="224.274" cy="43.259" rx="4.516" ry="4.516"/>
</svg>
