<?xml version="1.0" encoding="utf-8"?>
<!-- Generator: Adobe Illustrator 21.0.0, SVG Export Plug-In . SVG Version: 6.00 Build 0)  -->
<svg version="1.1" id="Layer_1" xmlns="http://www.w3.org/2000/svg" xmlns:xlink="http://www.w3.org/1999/xlink" x="0px" y="0px"
	 viewBox="0 0 61 61" style="enable-background:new 0 0 61 61;" xml:space="preserve">
<style type="text/css">
	.st0{fill:none;stroke:#FFFFFF;stroke-linecap:round;stroke-linejoin:round;stroke-miterlimit:10;}
</style>
<g>
	<path class="st0" d="M33.556,23.046c0,0,1.796-2.105,4.27-2.105c3.115,0,4.608,2.105,4.608,2.105"/>
	<circle class="st0" cx="30.5" cy="30.5" r="27.958"/>
	<path class="st0" d="M18.785,23.247c0,0,1.796-2.105,4.27-2.105c3.115,0,4.608,2.105,4.608,2.105"/>
	<path class="st0" d="M30.738,42.111c4.533,0,8.254-3.169,8.655-7.212c0.035-0.348-0.244-0.65-0.594-0.65H22.677
		c-0.35,0-0.629,0.302-0.594,0.65C22.484,38.942,26.205,42.111,30.738,42.111z"/>
</g>
</svg>
