<?xml version="1.0" encoding="utf-8"?>
<!-- Generator: Adobe Illustrator 20.1.0, SVG Export Plug-In . SVG Version: 6.00 Build 0)  -->
<svg version="1.1" id="Layer_1" xmlns="http://www.w3.org/2000/svg" xmlns:xlink="http://www.w3.org/1999/xlink" x="0px" y="0px"
	 viewBox="0 0 1528.6 672.8" style="enable-background:new 0 0 1528.6 672.8;" xml:space="preserve">
<style type="text/css">
	.st0{opacity:0.2;fill:#FFFFFF;enable-background:new    ;}
	.st1{opacity:0.4;fill:#FFFFFF;enable-background:new    ;}
	.st2{opacity:0.5;fill:#FFFFFF;enable-background:new    ;}
	.st3{opacity:0.35;fill:#FFFFFF;enable-background:new    ;}
</style>
<g>
	<g>
		
			<rect x="285.708" y="113.108" transform="matrix(0.3846 -0.9231 0.9231 0.3846 70.6338 337.2638)" class="st0" width="5.1" height="5.1"/>
		
			<rect x="479.589" y="208.019" transform="matrix(0.9487 -0.3162 0.3162 0.9487 -41.5929 162.9057)" class="st0" width="3.2" height="3.2"/>
		
			<rect x="462.704" y="383.823" transform="matrix(0.9806 -0.1961 0.1961 0.9806 -66.5656 98.5317)" class="st0" width="3.2" height="3.2"/>
		
			<rect x="189.041" y="272.235" transform="matrix(0.6943 -0.7197 0.7197 0.6943 -139.1904 221.8903)" class="st0" width="5.1" height="5.1"/>
		
			<rect x="288.478" y="259.88" transform="matrix(0.0509 -0.9987 0.9987 0.0509 14.1839 537.8847)" class="st0" width="3.2" height="3.2"/>
		
			<rect x="116.525" y="181.738" transform="matrix(0.1743 -0.9847 0.9847 0.1743 -82.9958 267.6986)" class="st0" width="3.2" height="3.2"/>
		
			<rect x="558.7" y="110.108" transform="matrix(0.8219 -0.5696 0.5696 0.8219 35.7792 339.7565)" class="st0" width="5.1" height="5.1"/>
		
			<rect x="322.274" y="318.579" transform="matrix(0.2457 -0.9693 0.9693 0.2457 -66.0687 555.4529)" class="st0" width="3.2" height="3.2"/>
		
			<rect x="103.712" y="428.995" transform="matrix(0.364 -0.9314 0.9314 0.364 -334.0776 371.9457)" class="st0" width="3.2" height="3.2"/>
		
			<rect x="935.728" y="391.104" transform="matrix(0.3846 -0.9231 0.9231 0.3846 214.045 1108.3679)" class="st0" width="5.1" height="5.1"/>
		
			<rect x="1024.62" y="469.142" transform="matrix(0.9487 -0.3162 0.3162 0.9487 -96.1957 348.6406)" class="st1" width="3.2" height="3.2"/>
		
			<rect x="962.712" y="463.833" transform="matrix(0.9806 -0.1961 0.1961 0.9806 -72.5473 198.1352)" class="st0" width="3.2" height="3.2"/>
		
			<rect x="798.628" y="600.517" transform="matrix(0.6943 -0.7197 0.7197 0.6943 -189.0968 760.9639)" class="st0" width="5.1" height="5.1"/>
		
			<rect x="836.131" y="473.389" transform="matrix(0.0509 -0.9987 0.9987 0.0509 320.7513 1287.479)" class="st0" width="3.2" height="3.2"/>
		
			<rect x="937.538" y="486.522" transform="matrix(0.1743 -0.9847 0.9847 0.1743 294.7975 1327.8053)" class="st2" width="3.2" height="3.2"/>
		
			<rect x="1000.174" y="549.393" transform="matrix(0.8219 -0.5696 0.5696 0.8219 -135.822 669.4545)" class="st3" width="5.1" height="5.1"/>
		
			<rect x="1032.753" y="598.975" transform="matrix(0.2457 -0.9693 0.9693 0.2457 198.038 1455.6504)" class="st0" width="3.2" height="3.2"/>
		
			<rect x="887.751" y="545.079" transform="matrix(0.364 -0.9314 0.9314 0.364 56.4509 1176.0286)" class="st0" width="3.2" height="3.2"/>
		
			<rect x="858.638" y="93.605" transform="matrix(0.3846 -0.9231 0.9231 0.3846 441.2206 854.1251)" class="st0" width="5.1" height="5.1"/>
		
			<rect x="998.627" y="76.143" transform="matrix(0.9487 -0.3162 0.3162 0.9487 26.7361 320.2584)" class="st1" width="3.2" height="3.2"/>
		
			<rect x="753.509" y="250.319" transform="matrix(0.9806 -0.1961 0.1961 0.9806 -34.7398 152.9656)" class="st0" width="3.2" height="3.2"/>
		
			<rect x="820.793" y="135.088" transform="matrix(0.6943 -0.7197 0.7197 0.6943 152.6447 634.6312)" class="st0" width="5.1" height="5.1"/>
		
			<rect x="874.133" y="132.389" transform="matrix(0.0509 -0.9987 0.9987 0.0509 697.3792 1001.7744)" class="st3" width="3.2" height="3.2"/>
		
			<rect x="889.293" y="213.206" transform="matrix(0.1743 -0.9847 0.9847 0.1743 524.093 1054.6219)" class="st0" width="3.2" height="3.2"/>
		
			<rect x="948.706" y="248.098" transform="matrix(0.8219 -0.5696 0.5696 0.8219 26.6327 586.4821)" class="st0" width="5.1" height="5.1"/>
		
			<rect x="1017.657" y="177.196" transform="matrix(0.2457 -0.9693 0.9693 0.2457 595.4998 1122.8728)" class="st0" width="3.2" height="3.2"/>
		
			<rect x="833.717" y="255.966" transform="matrix(0.364 -0.9314 0.9314 0.364 291.3652 941.8249)" class="st0" width="3.2" height="3.2"/>
		
			<rect x="678.313" y="107.481" transform="matrix(0.3846 -0.9231 0.9231 0.3846 317.4395 696.2088)" class="st0" width="5.1" height="5.1"/>
		
			<rect x="611.62" y="204.126" transform="matrix(0.9487 -0.3162 0.3162 0.9487 -33.5879 204.454)" class="st0" width="3.2" height="3.2"/>
		
			<rect x="755.71" y="368.828" transform="matrix(0.9806 -0.1961 0.1961 0.9806 -57.9362 155.6981)" class="st3" width="3.2" height="3.2"/>
		
			<rect x="541.698" y="314.092" transform="matrix(0.6943 -0.7197 0.7197 0.6943 -61.5044 488.4911)" class="st0" width="5.1" height="5.1"/>
		
			<rect x="628.642" y="289.308" transform="matrix(0.0509 -0.9987 0.9987 0.0509 307.6571 905.5396)" class="st0" width="3.2" height="3.2"/>
		
			<rect x="625.06" y="314.339" transform="matrix(0.1743 -0.9847 0.9847 0.1743 206.3304 877.9388)" class="st2" width="3.2" height="3.2"/>
		
			<rect x="641.364" y="647.486" transform="matrix(0.8219 -0.5696 0.5696 0.8219 -255.5958 482.5418)" class="st0" width="5.1" height="5.1"/>
		
			<rect x="663.569" y="468.885" transform="matrix(0.2457 -0.9693 0.9693 0.2457 45.6684 999.658)" class="st0" width="3.2" height="3.2"/>
		
			<rect x="452.539" y="532.081" transform="matrix(0.364 -0.9314 0.9314 0.364 -208.2373 762.4063)" class="st0" width="3.2" height="3.2"/>
		
			<rect x="2.287" y="470.813" transform="matrix(0.9459 -0.3246 0.3246 0.9459 -153.3848 27.1995)" class="st0" width="5.1" height="5.1"/>
		
			<rect x="78.282" y="558.746" transform="matrix(0.5001 -0.866 0.866 0.5001 -445.3123 349.3008)" class="st3" width="3.2" height="3.2"/>
		
			<rect x="367.302" y="442.8" transform="matrix(0.6036 -0.7973 0.7973 0.6036 -208.0815 470.2852)" class="st0" width="3.2" height="3.2"/>
		
			<rect x="8.175" y="660.461" transform="matrix(0.042 -0.9991 0.9991 0.042 -652.1506 645.8536)" class="st3" width="5.1" height="5.1"/>
		
			<rect x="13.342" y="598.788" transform="matrix(0.781 -0.6245 0.6245 0.781 -371.6774 140.8074)" class="st0" width="3.2" height="3.2"/>
		
			<rect x="59.998" y="613.13" transform="matrix(0.8525 -0.5228 0.5228 0.8525 -312.2809 122.895)" class="st0" width="3.2" height="3.2"/>
		
			<rect x="240.832" y="624.213" transform="matrix(0.2371 -0.9715 0.9715 0.2371 -423.2149 714.6024)" class="st0" width="5.1" height="5.1"/>
		
			<rect x="110.259" y="613.48" transform="matrix(0.8883 -0.4592 0.4592 0.8883 -269.961 120.0556)" class="st0" width="3.2" height="3.2"/>
		
			<rect x="229.691" y="460.084" transform="matrix(0.9384 -0.3455 0.3455 0.9384 -145.2709 108.3445)" class="st0" width="3.2" height="3.2"/>
		
			<rect x="243.402" y="124.584" transform="matrix(0.2477 -0.9688 0.9688 0.2477 62.0615 332.2932)" class="st0" width="3.2" height="3.2"/>
		
			<rect x="187.593" y="29.032" transform="matrix(0.8992 -0.4375 0.4375 0.8992 5.3462 86.3717)" class="st0" width="5.1" height="5.1"/>
		
			<rect x="111.478" y="115.204" transform="matrix(0.3907 -0.9205 0.9205 0.3907 -38.6221 175.2584)" class="st0" width="3.2" height="3.2"/>
		
			<rect x="0.2" y="58.102" transform="matrix(0.9968 -0.0801 0.0801 0.9968 -4.8519 0.4155)" class="st1" width="5.1" height="5.1"/>
		
			<rect x="63.802" y="55.587" transform="matrix(0.699 -0.7151 0.7151 0.699 -21.2101 63.9821)" class="st0" width="3.2" height="3.2"/>
		
			<rect x="55.212" y="103.598" transform="matrix(0.7823 -0.6229 0.6229 0.7823 -53.1602 58.2898)" class="st0" width="3.2" height="3.2"/>
		
			<rect x="64.529" y="284.468" transform="matrix(0.1169 -0.9931 0.9931 0.1169 -225.8121 320.0828)" class="st0" width="5.1" height="5.1"/>
		
			<rect x="60.951" y="153.603" transform="matrix(0.8257 -0.5642 0.5642 0.8257 -76.6561 62.3479)" class="st0" width="3.2" height="3.2"/>
		
			<rect x="227.775" y="253.362" transform="matrix(0.8893 -0.4574 0.4574 0.8893 -91.217 133.1446)" class="st0" width="3.2" height="3.2"/>
		
			<rect x="425.5" y="162.318" transform="matrix(0.9487 -0.3162 0.3162 0.9487 -29.9175 143.4581)" class="st0" width="3.2" height="3.2"/>
		
			<rect x="363.614" y="157.113" transform="matrix(0.9806 -0.1961 0.1961 0.9806 -24.0324 74.6988)" class="st0" width="3.2" height="3.2"/>
		
			<rect x="338.469" y="179.888" transform="matrix(0.1743 -0.9847 0.9847 0.1743 102.0856 484.719)" class="st0" width="3.2" height="3.2"/>
		
			<rect x="401.019" y="242.701" transform="matrix(0.8219 -0.5696 0.5696 0.8219 -67.8278 273.5524)" class="st3" width="5.1" height="5.1"/>
		
			<rect x="433.669" y="292.293" transform="matrix(0.2457 -0.9693 0.9693 0.2457 43.4358 643.6047)" class="st0" width="3.2" height="3.2"/>
		
			<rect x="580.637" y="614.232" transform="matrix(0.941 -0.3385 0.3385 0.941 -174.0832 233.4333)" class="st0" width="3.2" height="3.2"/>
		
			<rect x="584.475" y="552.241" transform="matrix(0.9757 -0.2192 0.2192 0.9757 -107.1468 141.9341)" class="st0" width="3.2" height="3.2"/>
		
			<rect x="561.209" y="527.57" transform="matrix(0.151 -0.9885 0.9885 0.151 -45.2802 1005.618)" class="st0" width="3.2" height="3.2"/>
		
			<rect x="497.946" y="591.648" transform="matrix(0.8083 -0.5888 0.5888 0.8083 -253.9166 408.6473)" class="st0" width="5.1" height="5.1"/>
		
			<rect x="451.023" y="625.487" transform="matrix(0.2227 -0.9749 0.9749 0.2227 -259.5142 928.6929)" class="st2" width="3.2" height="3.2"/>
		
			<rect x="225.572" y="343.304" transform="matrix(0.6039 -0.797 0.797 0.6039 -184.9253 317.6711)" class="st0" width="3.2" height="3.2"/>
		
			<rect x="171.637" y="373.953" transform="matrix(0.6981 -0.716 0.716 0.6981 -216.5959 237.4172)" class="st0" width="3.2" height="3.2"/>
		
			<rect x="163.691" y="406.964" transform="matrix(0.9109 -0.4127 0.4127 0.9109 -153.8771 104.6278)" class="st2" width="3.2" height="3.2"/>
		
			<rect x="251.188" y="422.799" transform="matrix(0.3562 -0.9344 0.9344 0.3562 -234.0942 510.9334)" class="st0" width="5.1" height="5.1"/>
		
			<rect x="305.801" y="445.915" transform="matrix(0.9386 -0.3451 0.3451 0.9386 -135.5489 133.5715)" class="st1" width="3.2" height="3.2"/>
		
			<rect x="536.209" y="52.789" transform="matrix(0.7275 -0.6861 0.6861 0.7275 109.2342 383.8137)" class="st0" width="3.2" height="3.2"/>
		
			<rect x="479.798" y="17.062" transform="matrix(0.8628 -0.5055 0.5055 0.8628 56.6047 245.9125)" class="st0" width="3.2" height="3.2"/>
		
			<rect x="367.976" y="71.084" transform="matrix(0.5306 -0.8476 0.8476 0.5306 111.5223 348.6407)" class="st0" width="5.1" height="5.1"/>
		
			<rect x="403.575" y="19.77" transform="matrix(0.9877 -0.1566 0.1566 0.9877 1.6522 63.7116)" class="st0" width="3.2" height="3.2"/>
		
			<rect x="436.921" y="55.291" transform="matrix(0.9995 -0.0329 0.0329 0.9995 -1.6354 14.469)" class="st0" width="3.2" height="3.2"/>
		
			<rect x="480.501" y="80.502" transform="matrix(0.0401 -0.9992 0.9992 0.0401 380.7485 560.5261)" class="st0" width="3.2" height="3.2"/>
		
			<rect x="755.885" y="159.514" transform="matrix(0.5432 -0.8396 0.8396 0.5432 210.7464 709.5833)" class="st0" width="3.2" height="3.2"/>
		
			<rect x="777.211" y="96.211" transform="matrix(0.7177 -0.6964 0.6964 0.7177 151.7633 569.9604)" class="st2" width="3.2" height="3.2"/>
		
			<rect x="696.394" y="0.725" transform="matrix(0.3135 -0.9496 0.9496 0.3135 476.718 665.9584)" class="st0" width="5.1" height="5.1"/>
		
			<rect x="756.446" y="22.81" transform="matrix(0.922 -0.3873 0.3873 0.922 49.7037 295.4839)" class="st3" width="3.2" height="3.2"/>
		
			<rect x="729.931" y="63.662" transform="matrix(0.9629 -0.27 0.27 0.9629 9.5466 199.9294)" class="st0" width="3.2" height="3.2"/>
		
			<rect x="715.721" y="111.997" transform="matrix(0.98 -0.199 0.199 0.98 -8.259 145.0187)" class="st0" width="3.2" height="3.2"/>
		
			<rect x="1019.04" y="353.026" transform="matrix(0.8208 -0.5713 0.5713 0.8208 -19.649 646.6266)" class="st0" width="3.2" height="3.2"/>
		
			<rect x="1006.448" y="330.956" transform="matrix(0.8853 -0.465 0.465 0.8853 -39.0255 506.888)" class="st0" width="3.2" height="3.2"/>
	</g>
	<g>
		
			<rect x="777.937" y="120.176" transform="matrix(0.3846 -0.9231 0.9231 0.3846 367.0296 795.9833)" class="st0" width="5.1" height="5.1"/>
		
			<rect x="971.917" y="215.22" transform="matrix(0.9487 -0.3162 0.3162 0.9487 -18.61 318.9482)" class="st0" width="3.2" height="3.2"/>
		
			<rect x="955.006" y="390.926" transform="matrix(0.9806 -0.1961 0.1961 0.9806 -58.4001 195.2086)" class="st0" width="3.2" height="3.2"/>
		
			<rect x="681.318" y="279.325" transform="matrix(0.6943 -0.7197 0.7197 0.6943 6.2 578.3457)" class="st0" width="5.1" height="5.1"/>
		
			<rect x="780.817" y="266.987" transform="matrix(0.0509 -0.9987 0.9987 0.0509 474.3858 1036.3324)" class="st0" width="3.2" height="3.2"/>
		
			<rect x="608.732" y="188.925" transform="matrix(0.1743 -0.9847 0.9847 0.1743 316.3433 758.3057)" class="st0" width="3.2" height="3.2"/>
		
			<rect x="1050.959" y="117.152" transform="matrix(0.8219 -0.5696 0.5696 0.8219 119.431 621.4067)" class="st0" width="5.1" height="5.1"/>
		
			<rect x="814.559" y="325.687" transform="matrix(0.2457 -0.9693 0.9693 0.2457 298.3664 1038.0063)" class="st0" width="3.2" height="3.2"/>
		
			<rect x="596.029" y="436.09" transform="matrix(0.364 -0.9314 0.9314 0.364 -27.5724 835.0023)" class="st0" width="3.2" height="3.2"/>
		
			<rect x="1427.957" y="398.173" transform="matrix(0.3846 -0.9231 0.9231 0.3846 510.4408 1567.0875)" class="st0" width="5.1" height="5.1"/>
		
			<rect x="1516.916" y="476.248" transform="matrix(0.9487 -0.3162 0.3162 0.9487 -73.1844 504.6682)" class="st1" width="3.2" height="3.2"/>
		
			<rect x="1455.015" y="470.935" transform="matrix(0.9806 -0.1961 0.1961 0.9806 -64.3819 294.8121)" class="st0" width="3.2" height="3.2"/>
		
			<rect x="1290.905" y="607.606" transform="matrix(0.6943 -0.7197 0.7197 0.6943 -43.7064 1117.4193)" class="st0" width="5.1" height="5.1"/>
		
			<rect x="1328.37" y="480.491" transform="matrix(0.0509 -0.9987 0.9987 0.0509 780.8635 1785.8221)" class="st0" width="3.2" height="3.2"/>
		
			<rect x="1429.745" y="493.709" transform="matrix(0.1743 -0.9847 0.9847 0.1743 694.1366 1818.4124)" class="st2" width="3.2" height="3.2"/>
		
			<rect x="1492.408" y="556.576" transform="matrix(0.8219 -0.5696 0.5696 0.8219 -52.254 951.1152)" class="st3" width="5.1" height="5.1"/>
		
			<rect x="1525.038" y="606.083" transform="matrix(0.2457 -0.9693 0.9693 0.2457 562.4731 1938.2039)" class="st0" width="3.2" height="3.2"/>
		
			<rect x="1380.031" y="552.268" transform="matrix(0.364 -0.9314 0.9314 0.364 362.8461 1639.1102)" class="st0" width="3.2" height="3.2"/>
		
			<rect x="1350.829" y="100.766" transform="matrix(0.3846 -0.9231 0.9231 0.3846 737.5076 1312.866)" class="st0" width="5.1" height="5.1"/>
		
			<rect x="1490.924" y="83.249" transform="matrix(0.9487 -0.3162 0.3162 0.9487 49.7474 476.2861)" class="st1" width="3.2" height="3.2"/>
		
			<rect x="1245.811" y="257.422" transform="matrix(0.9806 -0.1961 0.1961 0.9806 -26.5743 249.6425)" class="st0" width="3.2" height="3.2"/>
		
			<rect x="1313.001" y="142.25" transform="matrix(0.6943 -0.7197 0.7197 0.6943 297.9621 991.0587)" class="st0" width="5.1" height="5.1"/>
		
			<rect x="1366.372" y="139.492" transform="matrix(0.0509 -0.9987 0.9987 0.0509 1157.4913 1500.1176)" class="st3" width="3.2" height="3.2"/>
		
			<rect x="1381.517" y="220.295" transform="matrix(0.1743 -0.9847 0.9847 0.1743 923.5435 1545.1649)" class="st0" width="3.2" height="3.2"/>
		
			<rect x="1440.965" y="255.142" transform="matrix(0.8219 -0.5696 0.5696 0.8219 110.2845 868.1322)" class="st0" width="5.1" height="5.1"/>
		
			<rect x="1509.844" y="184.279" transform="matrix(0.2457 -0.9693 0.9693 0.2457 959.8855 1605.3138)" class="st0" width="3.2" height="3.2"/>
		
			<rect x="1326.034" y="263.061" transform="matrix(0.364 -0.9314 0.9314 0.364 597.8704 1404.8815)" class="st0" width="3.2" height="3.2"/>
		
			<rect x="1170.634" y="114.588" transform="matrix(0.3846 -0.9231 0.9231 0.3846 613.8566 1155.037)" class="st0" width="5.1" height="5.1"/>
		
			<rect x="1103.917" y="211.232" transform="matrix(0.9487 -0.3162 0.3162 0.9487 -10.5766 360.4816)" class="st0" width="3.2" height="3.2"/>
		
			<rect x="1248.012" y="375.93" transform="matrix(0.9806 -0.1961 0.1961 0.9806 -49.7707 252.375)" class="st3" width="3.2" height="3.2"/>
		
			<rect x="1033.906" y="321.253" transform="matrix(0.6943 -0.7197 0.7197 0.6943 83.813 844.9186)" class="st0" width="5.1" height="5.1"/>
		
			<rect x="1120.976" y="296.515" transform="matrix(0.0509 -0.9987 0.9987 0.0509 767.7545 1404.0769)" class="st0" width="3.2" height="3.2"/>
		
			<rect x="1117.267" y="321.526" transform="matrix(0.1743 -0.9847 0.9847 0.1743 605.6696 1368.5459)" class="st2" width="3.2" height="3.2"/>
		
			<rect x="1133.598" y="654.669" transform="matrix(0.8219 -0.5696 0.5696 0.8219 -172.0278 764.2024)" class="st0" width="5.1" height="5.1"/>
		
			<rect x="1155.756" y="475.968" transform="matrix(0.2457 -0.9693 0.9693 0.2457 410.0541 1482.0991)" class="st0" width="3.2" height="3.2"/>
		
			<rect x="944.82" y="539.27" transform="matrix(0.364 -0.9314 0.9314 0.364 98.1579 1225.4882)" class="st0" width="3.2" height="3.2"/>
		
			<rect x="494.535" y="478.028" transform="matrix(0.9459 -0.3246 0.3246 0.9459 -129.0744 187.3665)" class="st0" width="5.1" height="5.1"/>
		
			<rect x="570.642" y="565.879" transform="matrix(0.5001 -0.866 0.866 0.5001 -205.3514 779.2385)" class="st3" width="3.2" height="3.2"/>
		
			<rect x="859.556" y="449.875" transform="matrix(0.6036 -0.7973 0.7973 0.6036 -18.5897 865.5598)" class="st0" width="3.2" height="3.2"/>
		
			<rect x="500.514" y="667.572" transform="matrix(0.042 -0.9991 0.9991 0.042 -187.6149 1144.5696)" class="st3" width="5.1" height="5.1"/>
		
			<rect x="505.629" y="606.006" transform="matrix(0.781 -0.6245 0.6245 0.781 -268.3815 449.8273)" class="st0" width="3.2" height="3.2"/>
		
			<rect x="552.278" y="620.314" transform="matrix(0.8525 -0.5228 0.5228 0.8525 -243.4094 381.3091)" class="st0" width="3.2" height="3.2"/>
		
			<rect x="733.053" y="631.281" transform="matrix(0.2371 -0.9715 0.9715 0.2371 -54.5637 1198.1803)" class="st0" width="5.1" height="5.1"/>
		
			<rect x="602.489" y="620.718" transform="matrix(0.8883 -0.4592 0.4592 0.8883 -218.3155 346.9024)" class="st0" width="3.2" height="3.2"/>
		
			<rect x="721.875" y="467.21" transform="matrix(0.9384 -0.3455 0.3455 0.9384 -117.4224 278.8359)" class="st0" width="3.2" height="3.2"/>
		
			<rect x="735.628" y="131.615" transform="matrix(0.2477 -0.9688 0.9688 0.2477 425.5467 814.4678)" class="st0" width="3.2" height="3.2"/>
		
			<rect x="679.885" y="36.177" transform="matrix(0.8992 -0.4375 0.4375 0.8992 51.8358 302.4732)" class="st0" width="5.1" height="5.1"/>
		
			<rect x="603.688" y="122.278" transform="matrix(0.3907 -0.9205 0.9205 0.3907 254.7662 632.655)" class="st0" width="3.2" height="3.2"/>
		
			<rect x="492.505" y="65.199" transform="matrix(0.9968 -0.0801 0.0801 0.9968 -3.8372 39.893)" class="st1" width="5.1" height="5.1"/>
		
			<rect x="556.06" y="62.676" transform="matrix(0.699 -0.7151 0.7151 0.699 121.885 418.1355)" class="st0" width="3.2" height="3.2"/>
		
			<rect x="547.477" y="110.675" transform="matrix(0.7823 -0.6229 0.6229 0.7823 49.5971 366.4624)" class="st0" width="3.2" height="3.2"/>
		
			<rect x="556.81" y="291.61" transform="matrix(0.1169 -0.9931 0.9931 0.1169 201.8253 815.2952)" class="st0" width="5.1" height="5.1"/>
		
			<rect x="553.23" y="160.675" transform="matrix(0.8257 -0.5642 0.5642 0.8257 5.1792 341.3104)" class="st0" width="3.2" height="3.2"/>
		
			<rect x="720.093" y="260.523" transform="matrix(0.8893 -0.4574 0.4574 0.8893 -39.9771 359.1161)" class="st0" width="3.2" height="3.2"/>
		
			<rect x="917.796" y="169.424" transform="matrix(0.9487 -0.3162 0.3162 0.9487 -6.9062 299.4857)" class="st0" width="3.2" height="3.2"/>
		
			<rect x="855.917" y="164.216" transform="matrix(0.9806 -0.1961 0.1961 0.9806 -15.8669 171.3757)" class="st0" width="3.2" height="3.2"/>
		
			<rect x="830.694" y="186.977" transform="matrix(0.1743 -0.9847 0.9847 0.1743 501.5362 975.2619)" class="st0" width="3.2" height="3.2"/>
		
			<rect x="893.335" y="249.827" transform="matrix(0.8219 -0.5696 0.5696 0.8219 15.7873 555.2498)" class="st3" width="5.1" height="5.1"/>
		
			<rect x="925.856" y="299.376" transform="matrix(0.2457 -0.9693 0.9693 0.2457 407.8216 1126.0459)" class="st0" width="3.2" height="3.2"/>
		
			<rect x="1072.926" y="621.405" transform="matrix(0.941 -0.3385 0.3385 0.941 -147.4514 400.4914)" class="st0" width="3.2" height="3.2"/>
		
			<rect x="1076.775" y="559.407" transform="matrix(0.9757 -0.2192 0.2192 0.9757 -96.7453 250.0183)" class="st0" width="3.2" height="3.2"/>
		
			<rect x="1053.386" y="534.739" transform="matrix(0.151 -0.9885 0.9885 0.151 365.489 1498.2378)" class="st0" width="3.2" height="3.2"/>
		
			<rect x="990.233" y="598.803" transform="matrix(0.8083 -0.5888 0.5888 0.8083 -163.7345 699.8963)" class="st0" width="5.1" height="5.1"/>
		
			<rect x="943.338" y="632.667" transform="matrix(0.2227 -0.9749 0.9749 0.2227 116.1636 1414.2263)" class="st2" width="3.2" height="3.2"/>
		
			<rect x="717.813" y="350.404" transform="matrix(0.6039 -0.797 0.797 0.6039 4.3775 712.8179)" class="st0" width="3.2" height="3.2"/>
		
			<rect x="663.886" y="381.021" transform="matrix(0.6981 -0.716 0.716 0.6981 -73.0468 592.0013)" class="st0" width="3.2" height="3.2"/>
		
			<rect x="655.898" y="414.073" transform="matrix(0.9109 -0.4127 0.4127 0.9109 -112.9419 308.3893)" class="st2" width="3.2" height="3.2"/>
		
			<rect x="743.489" y="429.92" transform="matrix(0.3562 -0.9344 0.9344 0.3562 76.1936 975.5284)" class="st0" width="5.1" height="5.1"/>
		
			<rect x="798.014" y="453.049" transform="matrix(0.9386 -0.3451 0.3451 0.9386 -107.774 303.8669)" class="st1" width="3.2" height="3.2"/>
		
			<rect x="1028.421" y="59.936" transform="matrix(0.7275 -0.6861 0.6861 0.7275 238.4565 723.4692)" class="st0" width="3.2" height="3.2"/>
		
			<rect x="971.968" y="24.182" transform="matrix(0.8628 -0.5055 0.5055 0.8628 120.5214 495.6866)" class="st0" width="3.2" height="3.2"/>
		
			<rect x="860.289" y="78.287" transform="matrix(0.5306 -0.8476 0.8476 0.5306 336.526 769.3284)" class="st0" width="5.1" height="5.1"/>
		
			<rect x="895.827" y="26.855" transform="matrix(0.9877 -0.1566 0.1566 0.9877 6.6157 140.8829)" class="st0" width="3.2" height="3.2"/>
		
			<rect x="929.158" y="62.372" transform="matrix(0.9995 -0.0329 0.0329 0.9995 -1.6017 30.6796)" class="st0" width="3.2" height="3.2"/>
		
			<rect x="972.703" y="87.599" transform="matrix(0.0401 -0.9992 0.9992 0.0401 846.139 1059.1466)" class="st0" width="3.2" height="3.2"/>
		
			<rect x="1248.123" y="166.59" transform="matrix(0.5432 -0.8396 0.8396 0.5432 429.6591 1126.0992)" class="st0" width="3.2" height="3.2"/>
		
			<rect x="1269.535" y="103.355" transform="matrix(0.7177 -0.6964 0.6964 0.7177 285.783 914.8203)" class="st2" width="3.2" height="3.2"/>
		
			<rect x="1188.701" y="7.857" transform="matrix(0.3135 -0.9496 0.9496 0.3135 807.9163 1138.3439)" class="st0" width="5.1" height="5.1"/>
		
			<rect x="1248.756" y="29.905" transform="matrix(0.922 -0.3873 0.3873 0.922 85.3757 486.7008)" class="st3" width="3.2" height="3.2"/>
		
			<rect x="1222.139" y="70.764" transform="matrix(0.9629 -0.27 0.27 0.9629 25.9083 333.0844)" class="st0" width="3.2" height="3.2"/>
		
			<rect x="1208.003" y="119.055" transform="matrix(0.98 -0.199 0.199 0.98 0.1823 243.1241)" class="st0" width="3.2" height="3.2"/>
		
			<rect x="1511.372" y="360.18" transform="matrix(0.8208 -0.5713 0.5713 0.8208 64.5092 929.1647)" class="st0" width="3.2" height="3.2"/>
		
			<rect x="1498.737" y="338.107" transform="matrix(0.8853 -0.465 0.465 0.8853 14.111 736.6248)" class="st0" width="3.2" height="3.2"/>
	</g>
</g>
</svg>
