<?xml version="1.0" encoding="utf-8"?>
<!-- Generator: Adobe Illustrator 19.2.1, SVG Export Plug-In . SVG Version: 6.00 Build 0)  -->
<svg version="1.1" id="Layer_1" xmlns="http://www.w3.org/2000/svg" xmlns:xlink="http://www.w3.org/1999/xlink" x="0px" y="0px"
	 viewBox="0 0 25.5 26.4" style="enable-background:new 0 0 25.5 26.4;" xml:space="preserve">
<style type="text/css">
	.st0{fill:#FFFFFF;}
</style>
<path class="st0" d="M0,8.2l1.3-6C1.4,1.9,1.7,1.8,1.8,2l1.6,1.5C5.8,1.3,8.9,0,12.3,0c7.3,0,13.2,5.9,13.2,13.2
	s-5.9,13.2-13.2,13.2c-4.6,0-8.7-2.4-11-5.9l1.4-0.8c2.1,3.1,5.6,5.1,9.6,5.1c6.4,0,11.6-5.2,11.6-11.6S18.7,1.6,12.3,1.6
	c-2.9,0-5.6,1.1-7.7,2.9l1.8,1.6c0.2,0.2,0.1,0.5-0.1,0.5L0.4,8.5C0.2,8.6,0,8.4,0,8.2z"/>
</svg>
