<svg id="Layer_1" xmlns="http://www.w3.org/2000/svg" viewBox="0 0 1157.333 737"><style>.st0,.st1{opacity:.2;fill:#fff}.st1{opacity:.4}.st2,.st3{opacity:.5;fill:#fff}.st3{opacity:.35}</style><path transform="rotate(22.616 329.01 142.024)" class="st0" d="M326.439 139.439h5.123v5.123h-5.123z"/><path transform="rotate(-18.432 522.033 235.99)" class="st0" d="M520.374 234.387h3.202v3.202h-3.202z"/><path transform="rotate(-11.304 505.199 411.737)" class="st0" d="M503.515 410.143h3.202v3.202h-3.202z"/><path transform="rotate(-46.029 232.387 301.065)" class="st0" d="M229.817 298.504h5.123v5.123h-5.123z"/><path transform="rotate(-87.082 330.919 287.796)" class="st0" d="M329.304 286.194h3.202v3.202h-3.202z"/><path transform="rotate(-79.962 158.848 209.7)" class="st0" d="M157.255 208.102h3.202v3.202h-3.202z"/><path transform="rotate(55.278 602.018 139)" class="st0" d="M599.439 136.439h5.123v5.123h-5.123z"/><path transform="rotate(14.224 364.695 346.496)" class="st0" d="M363.091 344.895h3.202v3.202h-3.202z"/><path transform="rotate(21.346 146.097 456.977)" class="st0" d="M144.491 455.325h3.202v3.202h-3.202z"/><path transform="rotate(22.616 979.028 420.07)" class="st0" d="M976.439 417.439h5.123v5.123h-5.123z"/><path transform="rotate(-18.432 1067.119 497.007)" class="st1" d="M1065.399 495.399h3.202v3.202h-3.202z"/><path transform="rotate(-11.304 1005.252 491.699)" class="st0" d="M1003.515 490.143h3.202v3.202h-3.202z"/><path transform="rotate(-46.029 841.96 629.37)" class="st0" d="M839.373 626.817h5.123v5.123h-5.123z"/><path transform="rotate(-87.082 878.514 501.315)" class="st0" d="M876.882 499.719h3.202v3.202h-3.202z"/><path transform="rotate(-79.962 979.895 514.543)" class="st2" d="M978.33 512.941h3.202v3.202h-3.202z"/><path transform="rotate(55.278 1043.47 578.363)" class="st3" d="M1040.874 575.792h5.123v5.123h-5.123z"/><path transform="rotate(14.224 1075.167 626.943)" class="st0" d="M1073.558 625.344h3.202v3.202h-3.202z"/><path transform="rotate(21.346 930.158 573.173)" class="st0" d="M928.473 571.491h3.202v3.202h-3.202z"/><path transform="rotate(22.616 901.93 122.597)" class="st0" d="M899.33 119.984h5.123v5.123h-5.123z"/><path transform="rotate(-18.432 1041.127 103.983)" class="st1" d="M1039.424 102.412h3.202v3.202h-3.202z"/><path transform="rotate(-11.304 795.981 278.21)" class="st0" d="M794.283 276.655h3.202v3.202h-3.202z"/><path transform="rotate(-46.029 864.108 163.997)" class="st0" d="M861.531 161.45h5.123v5.123h-5.123z"/><path transform="rotate(-87.082 916.508 160.306)" class="st3" d="M914.882 158.719h3.202v3.202h-3.202z"/><path transform="rotate(-79.962 931.673 241.153)" class="st0" d="M930.102 239.544h3.202v3.202h-3.202z"/><path transform="rotate(55.278 992.03 277)" class="st0" d="M989.439 274.439h5.123v5.123h-5.123z"/><path transform="rotate(14.224 1060.061 205.154)" class="st0" d="M1058.454 203.558h3.202v3.202h-3.202z"/><path transform="rotate(21.346 876.177 283.976)" class="st0" d="M874.491 282.325h3.202v3.202h-3.202z"/><path transform="rotate(22.616 721.68 136.422)" class="st0" d="M719.089 133.818h5.123v5.123h-5.123z"/><path transform="rotate(-18.432 654.07 231.997)" class="st0" d="M652.399 230.399h3.202v3.202h-3.202z"/><path transform="rotate(-11.304 798.225 396.709)" class="st3" d="M796.515 395.143h3.202v3.202h-3.202z"/><path transform="rotate(-46.029 585.015 342.993)" class="st0" d="M582.439 340.439h5.123v5.123h-5.123z"/><path transform="rotate(-87.082 671.07 317.272)" class="st0" d="M669.447 315.676h3.202v3.202h-3.202z"/><path transform="rotate(-79.962 667.416 342.339)" class="st2" d="M665.839 340.737h3.202v3.202h-3.202z"/><path transform="rotate(55.278 684.67 676.45)" class="st0" d="M682.085 673.874h5.123v5.123h-5.123z"/><path transform="rotate(14.224 705.951 496.84)" class="st0" d="M704.344 495.241h3.202v3.202h-3.202z"/><path transform="rotate(21.346 494.948 560.144)" class="st0" d="M493.307 558.473h3.202v3.202h-3.202z"/><path transform="rotate(-18.94 45.591 499.73)" class="st0" d="M43.03 497.184h5.123v5.123H43.03z"/><path transform="rotate(-59.994 120.69 586.677)" class="st3" d="M119.084 585.083h3.202v3.202h-3.202z"/><path transform="rotate(-52.872 409.673 470.743)" class="st0" d="M408.089 469.156h3.202v3.202h-3.202z"/><path transform="rotate(-87.593 51.528 689.327)" class="st3" d="M48.987 686.772h5.123v5.123h-5.123z"/><path transform="rotate(-128.645 55.742 626.754)" class="st0" d="M54.149 625.148h3.202v3.202h-3.202z"/><path transform="scale(-1) rotate(58.481 1145.207 -182.821)" class="st0" d="M100.739 639.518h3.202v3.202h-3.202z"/><path transform="rotate(13.712 284.088 653.243)" class="st0" d="M281.534 650.558h5.123v5.123h-5.123z"/><path transform="rotate(-27.336 152.653 641.523)" class="st0" d="M151.037 639.882h3.202v3.202h-3.202z"/><path transform="rotate(-20.215 272.022 488.065)" class="st0" d="M270.45 486.455h3.202v3.202h-3.202z"/><path transform="scale(-1) rotate(-75.658 -196.39 367.997)" class="st0" d="M284.135 150.888h3.202v3.202h-3.202z"/><path transform="rotate(64.056 230.975 57.953)" class="st0" d="M228.416 55.4h5.123v5.123h-5.123z"/><path transform="rotate(23.001 153.854 143.092)" class="st0" d="M152.247 141.498h3.202v3.202h-3.202z"/><path transform="rotate(-4.585 43.573 87.04)" class="st1" d="M40.971 84.438h5.123v5.123h-5.123z"/><path transform="rotate(-45.653 106.159 83.538)" class="st0" d="M104.561 81.935h3.202v3.202h-3.202z"/><path transform="rotate(-38.528 97.576 131.527)" class="st0" d="M95.981 129.93h3.202v3.202h-3.202z"/><path transform="scale(-1) rotate(-83.286 -352.454 121.29)" class="st0" d="M105.28 310.832h5.123v5.123h-5.123z"/><path transform="rotate(55.655 103.35 181.493)" class="st0" d="M101.755 179.897h3.202v3.202h-3.202z"/><path transform="rotate(62.782 270.194 281.294)" class="st0" d="M268.603 279.703h3.202v3.202h-3.202z"/><path transform="rotate(-18.432 467.935 190.256)" class="st0" d="M466.283 188.655h3.202v3.202h-3.202z"/><path transform="rotate(-11.304 406.053 184.98)" class="st0" d="M404.399 183.399h3.202v3.202h-3.202z"/><path transform="rotate(-79.962 380.8 207.798)" class="st0" d="M379.213 206.197h3.202v3.202h-3.202z"/><path transform="rotate(55.278 444.334 271.614)" class="st3" d="M441.758 269.048h5.123v5.123h-5.123z"/><path transform="rotate(14.224 476.046 320.2)" class="st0" d="M474.441 318.6h3.202v3.202h-3.202z"/><path transform="rotate(70.215 623.093 642.14)" class="st0" d="M621.519 640.601h3.202v3.202h-3.202z"/><path transform="rotate(77.338 626.898 580.2)" class="st0" d="M625.312 578.61h3.202v3.202h-3.202z"/><path transform="rotate(8.685 603.678 555.73)" class="st0" d="M601.926 553.97h3.202v3.202h-3.202z"/><path transform="scale(-1) rotate(-36.075 -1905.797 1662.171)" class="st0" d="M538.671 618.003h5.123v5.123h-5.123z"/><path transform="rotate(102.868 493.39 653.45)" class="st2" d="M491.802 651.825h3.202v3.202h-3.202z"/><path transform="rotate(-52.848 267.987 371.274)" class="st0" d="M266.382 369.66h3.202v3.202h-3.202z"/><path transform="rotate(-45.725 213.934 401.877)" class="st0" d="M212.358 400.297h3.202v3.202h-3.202z"/><path transform="scale(-1) rotate(65.626 674.532 -319.565)" class="st2" d="M204.464 433.338h3.202v3.202h-3.202z"/><path transform="rotate(20.869 294.519 451.66)" class="st0" d="M291.957 449.133h5.123v5.123h-5.123z"/><path transform="rotate(-20.187 348.174 473.871)" class="st1" d="M346.55 472.253h3.202v3.202h-3.202z"/><path transform="rotate(-133.322 578.576 80.739)" class="st0" d="M576.98 79.125h3.202v3.202h-3.202z"/><path transform="rotate(-30.368 522.097 45.03)" class="st0" d="M520.549 43.396h3.202v3.202h-3.202z"/><path transform="rotate(-57.956 411.28 100.027)" class="st0" d="M408.74 97.473h5.123v5.123h-5.123z"/><path transform="scale(-1) rotate(80.991 55.862 -522.156)" class="st0" d="M444.297 46.113h3.202v3.202h-3.202z"/><path transform="scale(-1) rotate(88.115 86.017 -495.312)" class="st0" d="M477.688 81.64h3.202v3.202h-3.202z"/><path transform="rotate(2.292 522.38 108.384)" class="st0" d="M521.227 106.826h3.202v3.202h-3.202z"/><path transform="rotate(-57.098 798.277 187.466)" class="st0" d="M796.718 185.851h3.202v3.202h-3.202z"/><path transform="rotate(45.863 819.556 124.13)" class="st2" d="M817.984 122.535h3.202v3.202h-3.202z"/><path transform="rotate(18.268 739.638 29.588)" class="st0" d="M737.173 27.019h5.123v5.123h-5.123z"/><path transform="rotate(-22.786 798.805 50.715)" class="st3" d="M797.187 49.123h3.202v3.202h-3.202z"/><path transform="rotate(-15.664 772.123 91.612)" class="st0" d="M770.633 90.013h3.202v3.202h-3.202z"/><path transform="rotate(78.52 758.136 139.895)" class="st0" d="M756.539 138.297h3.202v3.202h-3.202z"/><path transform="scale(-1) rotate(-56.188 -820.337 2111.31)" class="st0" d="M1125.489 436.332h3.202v3.202h-3.202z"/><path transform="rotate(96.217 1113.692 307.908)" class="st0" d="M1111.122 305.362h5.123v5.123h-5.123z"/><path transform="rotate(55.161 1061.36 380.94)" class="st0" d="M1059.798 379.345H1063v3.202h-3.202z"/><path transform="rotate(62.29 1048.884 358.878)" class="st0" d="M1047.307 357.321h3.202v3.202h-3.202z"/></svg>