<?xml version="1.0" standalone="no"?>
<!DOCTYPE svg PUBLIC "-//W3C//DTD SVG 1.1//EN" "http://www.w3.org/Graphics/SVG/1.1/DTD/svg11.dtd" >
<svg xmlns="http://www.w3.org/2000/svg">
<metadata></metadata>
<defs>
<font id="prota_basicregular" horiz-adv-x="1067" >
<font-face units-per-em="2048" ascent="1536" descent="-512" />
<missing-glyph horiz-adv-x="757" />
<glyph horiz-adv-x="0" />
<glyph horiz-adv-x="682" />
<glyph unicode=" "  horiz-adv-x="757" />
<glyph unicode="&#x09;" horiz-adv-x="757" />
<glyph unicode="&#xa0;" horiz-adv-x="757" />
<glyph unicode="!" horiz-adv-x="661" d="M293 88q0 -96 86 -96q88 0 88 96t-88 96q-86 0 -86 -96zM307 1456q0 72 74 72q38 0 54 -18t18 -52l-23 -985q0 -15 -14 -26t-37 -11q-21 0 -35 11.5t-14 25.5z" />
<glyph unicode="&#x22;" horiz-adv-x="698" d="M170 1468q-1 28 16 44t43 16q25 0 42 -16t16 -44l-8 -264q-1 -19 -16 -29t-34 -10q-20 0 -35 10t-16 29zM412 1468q-1 28 16 44t43 16t43 -16t14 -44l-8 -264q0 -19 -15 -29t-34 -10q-20 0 -35 10t-16 29z" />
<glyph unicode="#" horiz-adv-x="1701" d="M127 508q0 23 16 39t39 16h295l70 393h-277q-23 0 -39 16.5t-16 39.5q0 25 16 41t39 16h297l70 397q3 20 19 33.5t36 13.5q23 0 40.5 -17t17.5 -40q0 -1 -1 -4.5t-1 -5.5l-66 -377h448l70 397q5 21 20 34t35 13q25 0 41.5 -16.5t16.5 -40.5q0 -6 -2 -10l-66 -377h275 q23 0 39 -16t16 -41q0 -23 -16 -39.5t-39 -16.5h-295l-70 -393h277q23 0 40 -16t17 -39q0 -24 -16.5 -40.5t-40.5 -16.5h-295l-72 -398q-3 -20 -19 -33.5t-36 -13.5q-23 0 -39.5 17t-16.5 40v11l68 377h-451l-69 -398q-3 -20 -19.5 -33.5t-36.5 -13.5q-23 0 -39 17t-16 40 v11l68 377h-277q-23 0 -39 16t-16 41zM592 563h448l70 393h-448z" />
<glyph unicode="$" horiz-adv-x="1275" d="M143 1055q0 197 118.5 298.5t328.5 112.5v119q0 22 14.5 36.5t36.5 14.5q21 0 36 -15t15 -36v-119q216 -13 369 -118q29 -19 29 -52q0 -25 -18.5 -43t-43.5 -18q-18 0 -35 10q-131 85 -301 98v-573q62 -11 106 -21t93.5 -26t83.5 -35t67 -47.5t52 -64t31 -84t12 -107.5 q0 -391 -445 -414v-118q0 -21 -15 -36.5t-36 -15.5q-22 0 -36.5 15t-14.5 37v116q-107 5 -217 35.5t-191 83.5q-26 20 -26 51q0 26 17.5 44t43.5 18q21 0 35 -11q61 -41 151.5 -67t186.5 -31v570q-61 11 -105 21t-94 26t-84 35.5t-67.5 48.5t-53 65.5t-31.5 86t-12 110.5z M266 1055q0 -68 16 -112t57.5 -74t98 -48t152.5 -35v557q-160 -11 -242 -78t-82 -210zM692 94q164 9 243 74.5t79 216.5q0 122 -66 174t-256 86v-551z" />
<glyph unicode="%" horiz-adv-x="1775" d="M113 989v266q0 133 79.5 212t223.5 79q141 0 223 -79.5t82 -211.5v-266q0 -134 -82 -213.5t-223 -79.5q-145 0 -224 79.5t-79 213.5zM233 989q0 -170 183 -170q184 0 184 170v266q0 83 -46.5 126.5t-137.5 43.5q-183 0 -183 -170v-266zM401 12q0 13 7 27l864 1497 q17 27 47 27q23 0 39 -16.5t16 -39.5q0 -13 -6 -28l-864 -1495q-15 -27 -47 -27q-23 0 -39.5 15t-16.5 40zM1059 262v264q0 133 79.5 212t223.5 79q140 0 220.5 -79.5t80.5 -211.5v-264q0 -131 -81 -210t-220 -79q-145 0 -224 78.5t-79 210.5zM1180 262q0 -168 182 -168 q180 0 180 168v264q0 170 -180 170q-182 0 -182 -170v-264z" />
<glyph unicode="&#x26;" horiz-adv-x="1538" d="M123 350q0 60 16.5 109t41.5 83t70.5 71t85.5 62t107 67.5t115 76.5q-68 52 -107.5 84t-78.5 70t-58 65.5t-35 64.5t-21 75.5t-5 89.5q0 278 405 278q86 0 155 -13.5t127.5 -44t91 -86.5t32.5 -134q0 -62 -10.5 -108.5t-28 -83.5t-59.5 -80.5t-85 -80t-126 -100.5 q139 -126 354 -344q29 126 29 262q0 26 17.5 44t43.5 18h205q25 0 42 -18t17 -44q0 -25 -17 -42t-42 -17h-145q-6 -165 -54 -303q195 -208 254 -269q17 -20 17 -43q0 -24 -18.5 -41.5t-43.5 -17.5q-27 0 -45 18q-93 102 -217 232q-76 -133 -199 -206t-280 -73 q-117 0 -211 18.5t-173 60.5t-123 118t-44 182zM246 350q0 -39 7 -70t33 -67.5t70.5 -61t125.5 -41t192 -16.5q130 0 231 63t160 187q-271 275 -408 397q-65 -48 -142.5 -97.5t-118 -75t-80 -59.5t-55 -71t-15.5 -88zM377 1268q0 -40 2 -63.5t13.5 -52t26.5 -48.5t51 -54 t76.5 -66.5t112.5 -88.5q142 109 195 159.5t71.5 93.5t18.5 120q0 14 -0.5 22.5t-6 27t-15.5 31t-31 28t-50.5 25t-76 16.5t-105.5 7q-47 0 -83 -3t-75 -12.5t-64.5 -26t-42.5 -46t-17 -69.5z" />
<glyph unicode="'" horiz-adv-x="456" d="M170 1468q-1 28 16 44t43 16q25 0 42 -16t16 -44l-8 -264q-1 -19 -16 -29t-34 -10q-20 0 -35 10t-16 29z" />
<glyph unicode="(" horiz-adv-x="747" d="M193 727q0 154 20 287.5t64.5 262t125.5 237.5t195 192q15 12 37 12q25 0 43 -17.5t18 -43.5q0 -29 -26 -49q-181 -132 -268 -347.5t-87 -533.5q0 -319 86.5 -534t268.5 -349q26 -20 26 -49q0 -25 -18 -43t-43 -18q-22 0 -37 12q-114 83 -195 192.5t-125.5 238 t-64.5 262.5t-20 288z" />
<glyph unicode=")" horiz-adv-x="747" d="M51 -205q0 30 25 49q183 133 269.5 348t86.5 535q0 319 -86.5 534t-269.5 347q-25 19 -25 49q0 26 18 43.5t44 17.5q19 0 37 -12q114 -83 195 -192t125.5 -237.5t64.5 -262t20 -287.5t-20 -288t-64.5 -262.5t-125.5 -238t-195 -192.5q-18 -12 -37 -12q-26 0 -44 18 t-18 43z" />
<glyph unicode="*" horiz-adv-x="786" d="M92 1044q0 30 25 43l174 101l-174 100q-25 16 -25 45q0 21 15 36t36 15q13 0 25 -8l174 -100v201q0 22 14.5 36.5t36.5 14.5t36.5 -14.5t14.5 -36.5v-201l172 100q16 8 27 8q21 0 36 -15t15 -36q0 -29 -26 -45l-172 -100l172 -101q26 -13 26 -43q0 -22 -14.5 -36.5 t-36.5 -14.5q-15 0 -27 6l-172 101v-201q0 -21 -15 -36t-36 -15t-36 15t-15 36v201l-174 -101q-12 -6 -25 -6q-21 0 -36 14t-15 37z" />
<glyph unicode="+" horiz-adv-x="1226" d="M158 616q0 26 17.5 44t43.5 18h332v334q0 25 18 43t43 18q26 0 44 -18t18 -43v-334h334q26 0 43.5 -18t17.5 -44q0 -25 -17.5 -43t-43.5 -18h-334v-332q0 -26 -18 -43.5t-44 -17.5q-25 0 -43 17.5t-18 43.5v332h-332q-26 0 -43.5 18t-17.5 43z" />
<glyph unicode="," horiz-adv-x="481" d="M154 88q0 96 86 96q88 0 88 -96v-61q0 -64 -32 -106t-58 -42q-14 0 -23.5 8.5t-9.5 20.5q0 16 16 22q32 19 35 62h-16q-86 0 -86 96z" />
<glyph unicode="-" horiz-adv-x="823" d="M113 616q0 26 17.5 44t43.5 18h475q26 0 44 -18t18 -44q0 -25 -18 -43t-44 -18h-475q-26 0 -43.5 18t-17.5 43z" />
<glyph unicode="." horiz-adv-x="481" d="M154 88q0 96 86 96q88 0 88 -96t-88 -96q-86 0 -86 96z" />
<glyph unicode="/" horiz-adv-x="997" d="M102 -41q0 9 4 21l680 1603q18 35 54 35q23 0 39 -16t16 -41q0 -9 -4 -21l-680 -1603q-15 -35 -53 -35q-24 0 -40 16t-16 41z" />
<glyph unicode="0" horiz-adv-x="1310" d="M133 504v512q0 116 26.5 208t85 166.5t162.5 115t248 40.5q116 0 206.5 -27t149.5 -74t97 -115t54 -145t16 -169v-512q0 -92 -16 -169t-54 -145t-97 -115.5t-149.5 -74.5t-206.5 -27t-206.5 27.5t-149 74.5t-96.5 115t-54 145t-16 169zM256 504q0 -77 10.5 -136 t37.5 -112t71.5 -87.5t114.5 -54.5t165 -20q117 0 197.5 29t123.5 86t61 127.5t18 167.5v512q0 77 -10.5 136t-37.5 112t-71.5 87t-115 54t-165.5 20q-117 0 -197.5 -29t-123.5 -86t-60.5 -127t-17.5 -167v-512z" />
<glyph unicode="1" horiz-adv-x="950" d="M143 1260q0 38 31 53l356 207q13 8 31 8q26 0 44 -18.5t18 -43.5v-1351h184q26 0 43.5 -18t17.5 -44t-17.5 -43.5t-43.5 -17.5h-518q-25 0 -43.5 17.5t-18.5 43.5t18.5 44t43.5 18h211v1245l-264 -154q-20 -8 -31 -8q-26 0 -44 18.5t-18 43.5z" />
<glyph unicode="2" horiz-adv-x="1177" d="M123 123q0 58 12.5 109.5t31.5 91.5t53 79t65 67t80.5 60t86.5 53t95 52q163 87 229 140q146 116 163 282q3 25 3 51q0 152 -97 234.5t-251 82.5q-97 0 -193.5 -33.5t-173.5 -95.5q-14 -14 -39 -14t-43 18t-18 43q0 29 25 48q91 72 206 113.5t234 41.5q207 0 340 -117 t133 -321q0 -66 -13.5 -125t-34 -105.5t-56.5 -90.5t-70.5 -76t-87.5 -67.5t-95 -60t-104 -57.5q-53 -28 -82 -44t-73 -43t-68.5 -48t-54 -52t-44.5 -62t-25.5 -71t-10.5 -85h741q25 0 43.5 -17.5t18.5 -42.5q0 -26 -18.5 -43.5t-43.5 -17.5h-739q-52 0 -88.5 36t-36.5 87z " />
<glyph unicode="3" horiz-adv-x="1146" d="M82 158q0 25 17.5 42t43.5 17q19 0 37 -12q71 -51 169.5 -81t199.5 -30q27 0 54.5 2.5t64.5 10.5t69.5 22t65 39t56 57.5t38 82.5t14.5 110q0 140 -73 213q-51 51 -121.5 73.5t-179.5 18.5h-158q-25 0 -43.5 17.5t-18.5 41.5q0 26 18.5 44t43.5 18h153q91 0 151 22.5 t105 67.5q72 69 72 192q0 72 -20 126.5t-51.5 86.5t-76.5 52t-88 27t-92 7q-86 0 -175 -24t-154 -64q-13 -8 -33 -8q-26 0 -43.5 17.5t-17.5 42.5q0 35 28 51q78 49 184 77.5t211 28.5q206 0 328.5 -109.5t122.5 -310.5q0 -225 -176 -331q227 -97 227 -377 q0 -208 -132.5 -326.5t-352.5 -118.5q-121 0 -238.5 36.5t-204.5 99.5q-24 18 -24 49z" />
<glyph unicode="4" horiz-adv-x="1148" d="M72 430q0 37 18 64l621 1005q19 29 53 29q25 0 43 -18t18 -44q0 -15 -10 -32l-620 -1004h688v358q0 26 18 44t43 18q26 0 44 -18t18 -44v-735q0 -26 -18 -43.5t-44 -17.5q-25 0 -43 17.5t-18 43.5v254h-688q-51 0 -87 36t-36 87z" />
<glyph unicode="5" horiz-adv-x="1175" d="M113 182q0 25 17.5 42.5t43.5 17.5q23 0 41 -15q78 -70 162 -100.5t198 -30.5q178 0 276.5 96.5t98.5 286.5q0 400 -379 400q-172 0 -329 -101q-12 -12 -33 -12q-26 0 -44 18t-18 43v7l56 575q3 47 38 79t83 32h618q25 0 43.5 -18t18.5 -44q0 -25 -18.5 -43t-43.5 -18 h-618l-43 -461q141 63 290 63q234 0 368 -130.5t134 -389.5q0 -247 -136.5 -376.5t-361.5 -129.5q-136 0 -241.5 38.5t-200.5 123.5q-20 17 -20 47z" />
<glyph unicode="6" horiz-adv-x="1230" d="M123 479v590q0 224 126 350.5t382 126.5q234 0 420 -131q26 -16 26 -49q0 -25 -17.5 -42t-43.5 -17q-22 0 -37 10q-151 108 -348 108q-64 0 -116.5 -8.5t-104 -32.5t-86.5 -63t-56.5 -103t-21.5 -149v-223q72 76 174.5 117t210.5 41q241 0 374.5 -131.5t133.5 -393.5 q0 -254 -133.5 -380t-374.5 -126q-235 0 -371.5 127.5t-136.5 378.5zM246 479q0 -385 385 -385q207 0 296 97.5t89 287.5q0 199 -92.5 301.5t-292.5 102.5q-385 0 -385 -404z" />
<glyph unicode="7" horiz-adv-x="1101" d="M61 1458q0 26 18 44t44 18h784q53 0 88 -33.5t35 -81.5q0 -32 -14 -64l-625 -1306q-15 -35 -55 -35q-26 0 -44 17.5t-18 43.5q0 13 7 27l624 1309h-782q-26 0 -44 17.5t-18 43.5z" />
<glyph unicode="8" horiz-adv-x="1267" d="M92 412q0 135 60.5 235t183.5 144q-67 22 -113.5 77t-66 122.5t-19.5 144.5q0 411 498 411q495 0 495 -411q0 -78 -19 -145t-65 -122.5t-114 -76.5q123 -44 183.5 -144t60.5 -235q0 -113 -40 -198.5t-113 -137.5t-170 -77.5t-218 -25.5q-250 0 -396.5 108.5t-146.5 330.5 zM215 412q0 -26 1 -43t9 -53.5t22.5 -62t46 -58t74.5 -53t112 -34.5t155 -14t154.5 14t111.5 34.5t74 53t45.5 58t22.5 62t9 53.5t1 43q0 319 -418 319q-420 0 -420 -319zM260 1135q0 -162 94 -225.5t281 -63.5q91 0 156.5 13.5t116 45.5t75.5 89.5t25 140.5t-25 140.5 t-75.5 90t-116 46t-156.5 13.5t-157 -13.5t-116.5 -46t-76 -90t-25.5 -140.5z" />
<glyph unicode="9" horiz-adv-x="1230" d="M92 1040q0 254 134.5 380t373.5 126q236 0 372 -127t136 -379v-589q0 -224 -126 -351t-382 -127q-239 0 -420 131q-26 16 -26 50q0 25 18.5 42t44.5 17q18 0 35 -10q153 -109 348 -109q64 0 117 8.5t104 33t86 63t56.5 103t21.5 149.5v223q-72 -76 -174.5 -117 t-210.5 -41q-241 0 -374.5 131t-133.5 393zM215 1040q0 -199 92.5 -301t292.5 -102q385 0 385 403q0 385 -385 385q-207 0 -296 -97.5t-89 -287.5z" />
<glyph unicode=":" horiz-adv-x="501" d="M164 88q0 96 86 96q88 0 88 -96t-88 -96q-86 0 -86 96zM164 946q0 96 86 96q88 0 88 -96t-88 -96q-86 0 -86 96z" />
<glyph unicode=";" horiz-adv-x="501" d="M164 88q0 -96 86 -96h16q-3 -43 -35 -62q-16 -6 -16 -22q0 -12 9.5 -20.5t23.5 -8.5q26 0 58 42t32 106v61q0 96 -88 96q-86 0 -86 -96zM164 946q0 96 86 96q88 0 88 -96t-88 -96q-86 0 -86 96z" />
<glyph unicode="&#x3c;" d="M0 0v1450h1067v-1450h-1067zM102 238l369 528l-369 448v-976zM133 102h801l-402 574zM133 1348l399 -492l402 492h-801zM596 766l369 -528v976z" />
<glyph unicode="=" horiz-adv-x="1226" d="M158 401q0 26 17.5 44t43.5 18h789q26 0 43.5 -18t17.5 -44t-17.5 -43.5t-43.5 -17.5h-789q-26 0 -43.5 17.5t-17.5 43.5zM158 834q0 25 17.5 43t43.5 18h789q26 0 43.5 -18t17.5 -43q0 -26 -17.5 -44t-43.5 -18h-789q-26 0 -43.5 18t-17.5 44z" />
<glyph unicode="&#x3e;" d="M0 0v1450h1067v-1450h-1067zM102 238l369 528l-369 448v-976zM133 102h801l-402 574zM133 1348l399 -492l402 492h-801zM596 766l369 -528v976z" />
<glyph unicode="?" horiz-adv-x="1148" d="M82 1329q0 24 16 43q75 80 197.5 127t255.5 47q230 0 363 -112t133 -324q0 -57 -11 -106t-27 -85t-44.5 -69.5t-52 -54.5t-61 -43.5t-61 -34t-61.5 -29.5q-84 -40 -115.5 -66t-31.5 -65v-96q0 -26 -19 -44t-45 -18q-25 0 -43 18t-18 44v96q0 41 14.5 75.5t32.5 57t53 46 t56.5 35t62.5 30.5q36 17 54 26t49.5 27t47.5 32.5t37.5 38.5t32 49t18 60t7.5 76q0 311 -371 311q-108 0 -206 -36t-155 -97q-17 -20 -47 -20q-25 0 -43 18t-18 43zM432 88q0 -96 86 -96q88 0 88 96t-88 96q-86 0 -86 -96z" />
<glyph unicode="@" horiz-adv-x="1748" d="M164 612q0 219 37.5 368t123.5 246.5t221 141t333 43.5q367 0 536.5 -173t169.5 -556q0 -62 -4 -115t-13.5 -112t-28 -104.5t-46 -83.5t-70 -58.5t-96.5 -20.5q-115 0 -178 82q-91 -88 -272 -88q-101 0 -171 22t-109.5 65.5t-57 100.5t-17.5 134v219q0 157 80 239t275 82 q192 0 271 -82.5t79 -238.5v-313q0 -15 3.5 -29t12.5 -31.5t30.5 -28t53.5 -10.5q135 0 135 371q0 173 -33.5 289t-106.5 186.5t-179.5 100.5t-263.5 30q-109 0 -190 -12t-149.5 -42t-114 -79.5t-77.5 -125t-46.5 -178t-14.5 -239.5t14.5 -239.5t46.5 -178t78 -124.5 t115 -79t150 -42t190 -12q207 0 333 57q16 4 25 4q26 0 43.5 -18t17.5 -43q0 -40 -36 -56q-149 -67 -383 -67q-200 0 -335 44t-221 141.5t-123.5 246t-37.5 366.5zM645 504q0 -51 8 -84t31.5 -61t71 -41t121.5 -13q72 0 117.5 12t69.5 39t32 61t8 87v219q0 51 -7.5 83 t-30 61t-69.5 42t-120 13q-74 0 -121.5 -13t-71 -41t-31.5 -61t-8 -84v-219z" />
<glyph unicode="A" horiz-adv-x="1548" d="M72 53q0 9 4 25l583 1374q15 35 46.5 55.5t68.5 20.5t68.5 -20.5t44.5 -55.5l586 -1374q4 -16 4 -25q0 -26 -18.5 -43.5t-43.5 -17.5q-41 0 -57 37l-156 368h-856l-156 -368q-16 -37 -57 -37q-25 0 -43 17.5t-18 43.5zM397 520h752l-375 885z" />
<glyph unicode="B" horiz-adv-x="1613" d="M266 213v1094q0 114 49.5 163.5t163.5 49.5h467q422 0 422 -410q0 -104 -45.5 -195t-130.5 -147q105 -47 166 -139t61 -217q0 -198 -102.5 -305t-272.5 -107h-565q-114 0 -163.5 49.5t-49.5 163.5zM389 213q0 -54 18 -72t72 -18h565q75 0 127 26t78 70.5t36.5 91 t10.5 101.5q0 133 -85.5 210.5t-239.5 77.5h-582v-487zM389 823h555q148 0 224.5 77t76.5 210q0 69 -13.5 119t-46 89.5t-92 59t-147.5 19.5h-467q-54 0 -72 -18t-18 -72v-484z" />
<glyph unicode="C" horiz-adv-x="1470" d="M195 485v549q0 238 153.5 375t456.5 137q255 0 459 -121q30 -18 30 -53q0 -26 -17.5 -44.5t-43.5 -18.5q-11 0 -31 8q-174 104 -397 104q-227 0 -357.5 -96.5t-130.5 -290.5v-549q0 -195 128 -291t360 -96q219 0 399 103q13 10 31 10q25 0 43 -19t18 -45q0 -33 -30 -53 q-207 -121 -461 -121q-303 0 -456.5 137t-153.5 375z" />
<glyph unicode="D" horiz-adv-x="1589" d="M256 143v1241q0 74 35 109t108 35h351q305 0 475 -137t170 -422v-410q0 -252 -138 -393q-166 -166 -507 -166h-351q-73 0 -108 35t-35 108zM379 123h371q288 0 417 129q22 22 39 48.5t28 49t18.5 57t11.5 53.5t6 60q2 42 2 56v22v37v55v148q0 85 -5.5 149.5t-20 126 t-39.5 105t-64.5 80.5t-94 59.5t-129 34.5t-169.5 12h-371v-1282z" />
<glyph unicode="E" horiz-adv-x="1525" d="M256 213v1094q0 114 49.5 163.5t163.5 49.5h801q26 0 43.5 -18t17.5 -44t-17.5 -43.5t-43.5 -17.5h-801q-54 0 -72 -18t-18 -72v-496h858q26 0 43.5 -18t17.5 -43q0 -26 -17.5 -44t-43.5 -18h-858v-475q0 -54 18 -72t72 -18h801q26 0 43.5 -18t17.5 -44t-17.5 -43.5 t-43.5 -17.5h-801q-114 0 -163.5 49.5t-49.5 163.5z" />
<glyph unicode="F" horiz-adv-x="1445" d="M256 53v1254q0 114 49.5 163.5t163.5 49.5h793q26 0 43.5 -18t17.5 -44t-17.5 -43.5t-43.5 -17.5h-793q-54 0 -72 -18t-18 -72v-514h790q26 0 44 -18.5t18 -43.5q0 -26 -18 -43.5t-44 -17.5h-790v-617q0 -26 -18 -43.5t-44 -17.5t-43.5 17.5t-17.5 43.5z" />
<glyph unicode="G" horiz-adv-x="1576" d="M195 485v549q0 251 162 381.5t456 130.5q128 0 261 -31.5t237 -89.5q30 -20 30 -53q0 -25 -17.5 -42t-43.5 -17q-18 0 -31 8q-88 49 -202.5 76.5t-233.5 27.5q-234 0 -365 -96.5t-131 -294.5v-549q0 -197 135 -294t371 -97q200 0 416 119v506q0 25 17.5 42t43.5 17 q25 0 43.5 -17.5t18.5 -41.5v-543q0 -34 -31 -51q-268 -152 -508 -152q-315 0 -471.5 136t-156.5 376z" />
<glyph unicode="H" horiz-adv-x="1675" d="M256 53v1413q0 26 17.5 44t43.5 18t44 -18t18 -44v-655h917v655q0 26 18 44t44 18q25 0 43 -18t18 -44v-1413q0 -26 -18 -43.5t-43 -17.5q-26 0 -44 17.5t-18 43.5v635h-917v-635q0 -26 -18 -43.5t-44 -17.5t-43.5 17.5t-17.5 43.5z" />
<glyph unicode="I" horiz-adv-x="634" d="M256 53v1413q0 26 17.5 44t43.5 18t44 -18t18 -44v-1413q0 -26 -18 -43.5t-44 -17.5t-43.5 17.5t-17.5 43.5z" />
<glyph unicode="J" horiz-adv-x="995" d="M37 113q0 26 19.5 44.5t45.5 16.5q21 -4 29 -10q111 -68 246 -68q136 0 196 58q43 43 53.5 91.5t10.5 141.5v1079q0 26 18 44t43 18q26 0 44 -18t18 -44v-1079q0 -120 -20 -189.5t-78 -125.5q-99 -99 -285 -99q-173 0 -311 86q-29 19 -29 54z" />
<glyph unicode="K" horiz-adv-x="1556" d="M256 53v1413q0 25 17.5 43.5t43.5 18.5t44 -18.5t18 -43.5v-860l913 903q16 19 43 19q25 0 43.5 -18t18.5 -44q0 -27 -19 -43l-614 -608l633 -721q16 -19 16 -41q0 -26 -18 -43.5t-43 -17.5q-30 0 -47 20l-629 715l-297 -295v-379q0 -26 -18 -43.5t-44 -17.5t-43.5 17.5 t-17.5 43.5z" />
<glyph unicode="L" horiz-adv-x="1318" d="M256 213v1253q0 26 17.5 44t43.5 18t44 -18t18 -44v-1253q0 -54 18 -72t72 -18h676q25 0 43 -18t18 -44t-18 -43.5t-43 -17.5h-676q-114 0 -163.5 49.5t-49.5 163.5z" />
<glyph unicode="M" horiz-adv-x="1918" d="M256 53v1352q0 51 36.5 87t88.5 36q35 0 65.5 -19t45.5 -51l466 -975l469 975q15 32 45.5 51t65.5 19q52 0 88.5 -36t36.5 -89v-1350q0 -26 -17.5 -43.5t-43.5 -17.5t-44 17.5t-18 43.5v1350l-2 2q-522 -1090 -522 -1092q-17 -34 -58 -34q-38 0 -55 34l-522 1092h-2 v-1352q0 -26 -18 -43.5t-44 -17.5t-43.5 17.5t-17.5 43.5z" />
<glyph unicode="N" horiz-adv-x="1714" d="M256 49v1352q0 51 36 87t87 36q66 0 104 -58l850 -1355h2v1351q0 26 18 44t44 18t43.5 -18t17.5 -44v-1351q0 -51 -36 -87t-87 -36q-67 0 -104 57l-850 1356h-2v-1352q0 -26 -18 -43.5t-44 -17.5t-43.5 17.5t-17.5 43.5z" />
<glyph unicode="O" horiz-adv-x="1585" d="M184 512v494q0 252 162.5 396t446.5 144t446 -144t162 -396v-494q0 -251 -162 -395t-446 -144t-446.5 144t-162.5 395zM307 512q0 -90 28 -162.5t74.5 -119.5t110.5 -78t131.5 -44.5t141.5 -13.5t141.5 13.5t131 44.5t110 78t74.5 119.5t28 162.5v494q0 113 -42 197 t-113 130.5t-153.5 69t-176.5 22.5q-74 0 -141.5 -13t-131.5 -44.5t-110.5 -78.5t-74.5 -119.5t-28 -163.5v-494z" />
<glyph unicode="P" horiz-adv-x="1554" d="M256 53v1254q0 114 49.5 163.5t163.5 49.5h438q252 0 368 -128t116 -384q0 -257 -116.5 -384.5t-367.5 -127.5h-528v-443q0 -26 -18 -43.5t-44 -17.5t-43.5 17.5t-17.5 43.5zM379 618h528q195 0 278 89.5t83 300.5q0 206 -81.5 297.5t-279.5 91.5h-438q-54 0 -72 -18 t-18 -72v-689z" />
<glyph unicode="Q" horiz-adv-x="1585" d="M184 512v494q0 252 162.5 396t446.5 144t446 -144t162 -396v-494q0 -251 -162 -395t-446 -144t-446.5 144t-162.5 395zM307 512q0 -90 28 -162.5t74.5 -119.5t110.5 -78t131.5 -44.5t141.5 -13.5t141.5 13.5t131 44.5t110 78t74.5 119.5t28 162.5v494q0 113 -42 197 t-113 130.5t-153.5 69t-176.5 22.5q-74 0 -141.5 -13t-131.5 -44.5t-110.5 -78.5t-74.5 -119.5t-28 -163.5v-494zM498 -205q0 -25 18 -43t43 -18q6 0 10 2q64 10 146 10q184 0 311 -78q13 -8 33 -8q26 0 43.5 17.5t17.5 43.5q0 37 -30 52q-154 96 -375 96q-79 0 -164 -12 q-23 -3 -38 -21t-15 -41z" />
<glyph unicode="R" horiz-adv-x="1595" d="M256 53v1254q0 114 49.5 163.5t163.5 49.5h438q250 0 367 -130.5t117 -383.5q0 -213 -85.5 -338.5t-277.5 -153.5l338 -422q14 -21 14 -39q0 -26 -18 -43.5t-43 -17.5q-30 0 -49 22l-393 492h-498v-453q0 -26 -18 -43.5t-44 -17.5t-43.5 17.5t-17.5 43.5zM379 629h528 q198 0 279.5 89t81.5 288q0 206 -83.5 298.5t-277.5 92.5h-438q-54 0 -72 -18t-18 -72v-678z" />
<glyph unicode="S" horiz-adv-x="1439" d="M160 1114q0 118 43 203.5t122.5 134.5t179.5 71.5t226 22.5q124 0 245.5 -32.5t217.5 -92.5q29 -16 29 -53q0 -25 -18 -43t-44 -18q-18 0 -31 8q-173 106 -399 106q-106 0 -185.5 -16t-129 -43t-80 -67.5t-42 -83.5t-11.5 -97q0 -60 14.5 -101.5t43.5 -72t85.5 -52.5 t125.5 -37.5t179 -31.5q77 -12 128.5 -21.5t115 -26.5t104.5 -37t84 -51t67.5 -69.5t40 -92.5t15.5 -120q0 -428 -586 -428q-138 0 -274.5 34t-228.5 91q-31 17 -31 54q0 25 18 43t43 18q20 0 33 -8q77 -47 199 -77t241 -30q79 0 143 7.5t125.5 27.5t103 53t66.5 87.5 t25 127.5q0 55 -15 97.5t-45 71t-67 48.5t-87.5 33.5t-100 22.5t-111.5 19q-15 2 -22 3q-78 11 -130 20.5t-115.5 26t-104.5 36.5t-83.5 51t-66.5 69.5t-39.5 93t-15.5 121.5z" />
<glyph unicode="T" horiz-adv-x="1261" d="M51 1458q0 26 18 44t44 18h1036q25 0 43 -18t18 -44t-18 -43.5t-43 -17.5h-457v-1344q0 -26 -18 -43.5t-43 -17.5q-26 0 -44 17.5t-18 43.5v1344h-456q-26 0 -44 17.5t-18 43.5z" />
<glyph unicode="U" horiz-adv-x="1658" d="M236 520v946q0 26 17.5 44t43.5 18t43.5 -18t17.5 -44v-946q0 -103 22 -177.5t74 -132t145.5 -86t229.5 -28.5t229.5 28.5t145.5 86t74 132t22 177.5v946q0 26 18.5 44t43.5 18q26 0 43.5 -18t17.5 -44v-946q0 -128 -30 -224.5t-97 -171t-184.5 -113t-282.5 -38.5 q-133 0 -234.5 26t-169 72t-110.5 115t-61 150.5t-18 183.5z" />
<glyph unicode="V" horiz-adv-x="1527" d="M61 1466q0 26 18.5 44t43.5 18q41 0 57 -37l582 -1376h2l584 1376q16 37 57 37q25 0 43 -18t18 -44q0 -12 -6 -24l-583 -1374q-13 -35 -44.5 -55.5t-68.5 -20.5t-68.5 20.5t-46.5 55.5l-583 1374q-5 20 -5 24z" />
<glyph unicode="W" horiz-adv-x="1984" d="M72 1466q0 25 17.5 43.5t43.5 18.5q20 0 37 -12.5t23 -32.5l364 -1368h2l313 1161q10 41 44 66.5t77 25.5q42 0 75.5 -25.5t43.5 -66.5l313 -1161h2l365 1368q6 20 22.5 32.5t36.5 12.5q26 0 44 -18.5t18 -43.5q0 -10 -2 -16l-365 -1366q-10 -41 -43.5 -66.5t-75.5 -25.5 q-43 0 -76.5 25.5t-43.5 66.5l-314 1161h-2l-313 -1161q-10 -41 -43.5 -66.5t-75.5 -25.5q-43 0 -77 25.5t-44 66.5l-364 1366q-2 6 -2 16z" />
<glyph unicode="X" horiz-adv-x="1429" d="M92 53q0 21 12 39l533 668l-533 667q-12 18 -12 39q0 26 18.5 44t43.5 18q31 0 47 -23l514 -647l514 647q20 23 47 23q26 0 43.5 -18t17.5 -44q0 -21 -12 -39l-532 -667l532 -668q12 -18 12 -39q0 -26 -17.5 -43.5t-43.5 -17.5q-28 0 -47 22l-514 648l-514 -648 q-16 -22 -47 -22q-25 0 -43.5 17.5t-18.5 43.5z" />
<glyph unicode="Y" horiz-adv-x="1335" d="M51 1466q0 26 18.5 44t43.5 18q35 0 51 -29l504 -809l503 809q16 29 52 29q26 0 43.5 -18t17.5 -44q0 -19 -8 -32l-547 -879v-502q0 -26 -17.5 -43.5t-43.5 -17.5q-25 0 -43.5 17.5t-18.5 43.5v502l-547 879q-8 13 -8 32z" />
<glyph unicode="Z" horiz-adv-x="1392" d="M113 125q0 42 28 78l1006 1192v2h-942q-26 0 -44 17.5t-18 43.5t18 44t44 18h942q53 0 88 -37t35 -88q0 -41 -29 -78l-1005 -1192v-2h935q26 0 44 -18t18 -44t-18 -43.5t-44 -17.5h-935q-53 0 -88 37t-35 88z" />
<glyph unicode="[" d="M0 0v1450h1067v-1450h-1067zM102 238l369 528l-369 448v-976zM133 102h801l-402 574zM133 1348l399 -492l402 492h-801zM596 766l369 -528v976z" />
<glyph unicode="\" d="M0 0v1450h1067v-1450h-1067zM102 238l369 528l-369 448v-976zM133 102h801l-402 574zM133 1348l399 -492l402 492h-801zM596 766l369 -528v976z" />
<glyph unicode="]" d="M0 0v1450h1067v-1450h-1067zM102 238l369 528l-369 448v-976zM133 102h801l-402 574zM133 1348l399 -492l402 492h-801zM596 766l369 -528v976z" />
<glyph unicode="^" d="M0 0v1450h1067v-1450h-1067zM102 238l369 528l-369 448v-976zM133 102h801l-402 574zM133 1348l399 -492l402 492h-801zM596 766l369 -528v976z" />
<glyph unicode="_" horiz-adv-x="1204" d="M20 -180h1164v-88h-1164v88z" />
<glyph unicode="`" d="M0 0v1450h1067v-1450h-1067zM102 238l369 528l-369 448v-976zM133 102h801l-402 574zM133 1348l399 -492l402 492h-801zM596 766l369 -528v976z" />
<glyph unicode="a" horiz-adv-x="1548" d="M72 53q0 9 4 25l583 1374q15 35 46.5 55.5t68.5 20.5t68.5 -20.5t44.5 -55.5l586 -1374q4 -16 4 -25q0 -26 -18.5 -43.5t-43.5 -17.5q-41 0 -57 37l-156 368h-856l-156 -368q-16 -37 -57 -37q-25 0 -43 17.5t-18 43.5zM397 520h752l-375 885z" />
<glyph unicode="b" horiz-adv-x="1613" d="M266 213v1094q0 114 49.5 163.5t163.5 49.5h467q422 0 422 -410q0 -104 -45.5 -195t-130.5 -147q105 -47 166 -139t61 -217q0 -198 -102.5 -305t-272.5 -107h-565q-114 0 -163.5 49.5t-49.5 163.5zM389 213q0 -54 18 -72t72 -18h565q75 0 127 26t78 70.5t36.5 91 t10.5 101.5q0 133 -85.5 210.5t-239.5 77.5h-582v-487zM389 823h555q148 0 224.5 77t76.5 210q0 69 -13.5 119t-46 89.5t-92 59t-147.5 19.5h-467q-54 0 -72 -18t-18 -72v-484z" />
<glyph unicode="c" horiz-adv-x="1470" d="M195 485v549q0 238 153.5 375t456.5 137q255 0 459 -121q30 -18 30 -53q0 -26 -17.5 -44.5t-43.5 -18.5q-11 0 -31 8q-174 104 -397 104q-227 0 -357.5 -96.5t-130.5 -290.5v-549q0 -195 128 -291t360 -96q219 0 399 103q13 10 31 10q25 0 43 -19t18 -45q0 -33 -30 -53 q-207 -121 -461 -121q-303 0 -456.5 137t-153.5 375z" />
<glyph unicode="d" horiz-adv-x="1589" d="M256 143v1241q0 74 35 109t108 35h351q305 0 475 -137t170 -422v-410q0 -252 -138 -393q-166 -166 -507 -166h-351q-73 0 -108 35t-35 108zM379 123h371q288 0 417 129q22 22 39 48.5t28 49t18.5 57t11.5 53.5t6 60q2 42 2 56v22v37v55v148q0 85 -5.5 149.5t-20 126 t-39.5 105t-64.5 80.5t-94 59.5t-129 34.5t-169.5 12h-371v-1282z" />
<glyph unicode="e" horiz-adv-x="1525" d="M256 213v1094q0 114 49.5 163.5t163.5 49.5h801q26 0 43.5 -18t17.5 -44t-17.5 -43.5t-43.5 -17.5h-801q-54 0 -72 -18t-18 -72v-496h858q26 0 43.5 -18t17.5 -43q0 -26 -17.5 -44t-43.5 -18h-858v-475q0 -54 18 -72t72 -18h801q26 0 43.5 -18t17.5 -44t-17.5 -43.5 t-43.5 -17.5h-801q-114 0 -163.5 49.5t-49.5 163.5z" />
<glyph unicode="f" horiz-adv-x="1445" d="M256 53v1254q0 114 49.5 163.5t163.5 49.5h793q26 0 43.5 -18t17.5 -44t-17.5 -43.5t-43.5 -17.5h-793q-54 0 -72 -18t-18 -72v-514h790q26 0 44 -18.5t18 -43.5q0 -26 -18 -43.5t-44 -17.5h-790v-617q0 -26 -18 -43.5t-44 -17.5t-43.5 17.5t-17.5 43.5z" />
<glyph unicode="g" horiz-adv-x="1576" d="M195 485v549q0 251 162 381.5t456 130.5q128 0 261 -31.5t237 -89.5q30 -20 30 -53q0 -25 -17.5 -42t-43.5 -17q-18 0 -31 8q-88 49 -202.5 76.5t-233.5 27.5q-234 0 -365 -96.5t-131 -294.5v-549q0 -197 135 -294t371 -97q200 0 416 119v506q0 25 17.5 42t43.5 17 q25 0 43.5 -17.5t18.5 -41.5v-543q0 -34 -31 -51q-268 -152 -508 -152q-315 0 -471.5 136t-156.5 376z" />
<glyph unicode="h" horiz-adv-x="1675" d="M256 53v1413q0 26 17.5 44t43.5 18t44 -18t18 -44v-655h917v655q0 26 18 44t44 18q25 0 43 -18t18 -44v-1413q0 -26 -18 -43.5t-43 -17.5q-26 0 -44 17.5t-18 43.5v635h-917v-635q0 -26 -18 -43.5t-44 -17.5t-43.5 17.5t-17.5 43.5z" />
<glyph unicode="i" horiz-adv-x="634" d="M256 53v1413q0 26 17.5 44t43.5 18t44 -18t18 -44v-1413q0 -26 -18 -43.5t-44 -17.5t-43.5 17.5t-17.5 43.5z" />
<glyph unicode="j" horiz-adv-x="1001" d="M37 113q0 26 19.5 44.5t45.5 16.5q21 -4 29 -10q111 -68 246 -68q136 0 196 58q43 43 53.5 91.5t10.5 141.5v1079q0 26 18 44t43 18q26 0 44 -18t18 -44v-1079q0 -120 -20 -189.5t-78 -125.5q-99 -99 -285 -99q-173 0 -311 86q-29 19 -29 54z" />
<glyph unicode="k" horiz-adv-x="1556" d="M256 53v1413q0 25 17.5 43.5t43.5 18.5t44 -18.5t18 -43.5v-860l913 903q16 19 43 19q25 0 43.5 -18t18.5 -44q0 -27 -19 -43l-614 -608l633 -721q16 -19 16 -41q0 -26 -18 -43.5t-43 -17.5q-30 0 -47 20l-629 715l-297 -295v-379q0 -26 -18 -43.5t-44 -17.5t-43.5 17.5 t-17.5 43.5z" />
<glyph unicode="l" horiz-adv-x="1318" d="M256 213v1253q0 26 17.5 44t43.5 18t44 -18t18 -44v-1253q0 -54 18 -72t72 -18h676q25 0 43 -18t18 -44t-18 -43.5t-43 -17.5h-676q-114 0 -163.5 49.5t-49.5 163.5z" />
<glyph unicode="m" horiz-adv-x="1918" d="M256 53v1352q0 51 36.5 87t88.5 36q35 0 65.5 -19t45.5 -51l466 -975l469 975q15 32 45.5 51t65.5 19q52 0 88.5 -36t36.5 -89v-1350q0 -26 -17.5 -43.5t-43.5 -17.5t-44 17.5t-18 43.5v1350l-2 2q-522 -1090 -522 -1092q-17 -34 -58 -34q-38 0 -55 34l-522 1092h-2 v-1352q0 -26 -18 -43.5t-44 -17.5t-43.5 17.5t-17.5 43.5z" />
<glyph unicode="n" horiz-adv-x="1714" d="M256 49v1352q0 51 36 87t87 36q66 0 104 -58l850 -1355h2v1351q0 26 18 44t44 18t43.5 -18t17.5 -44v-1351q0 -51 -36 -87t-87 -36q-67 0 -104 57l-850 1356h-2v-1352q0 -26 -18 -43.5t-44 -17.5t-43.5 17.5t-17.5 43.5z" />
<glyph unicode="o" horiz-adv-x="1585" d="M184 512v494q0 252 162.5 396t446.5 144t446 -144t162 -396v-494q0 -251 -162 -395t-446 -144t-446.5 144t-162.5 395zM307 512q0 -90 28 -162.5t74.5 -119.5t110.5 -78t131.5 -44.5t141.5 -13.5t141.5 13.5t131 44.5t110 78t74.5 119.5t28 162.5v494q0 113 -42 197 t-113 130.5t-153.5 69t-176.5 22.5q-74 0 -141.5 -13t-131.5 -44.5t-110.5 -78.5t-74.5 -119.5t-28 -163.5v-494z" />
<glyph unicode="p" horiz-adv-x="1554" d="M256 53v1254q0 114 49.5 163.5t163.5 49.5h438q252 0 368 -128t116 -384q0 -257 -116.5 -384.5t-367.5 -127.5h-528v-443q0 -26 -18 -43.5t-44 -17.5t-43.5 17.5t-17.5 43.5zM379 618h528q195 0 278 89.5t83 300.5q0 206 -81.5 297.5t-279.5 91.5h-438q-54 0 -72 -18 t-18 -72v-689z" />
<glyph unicode="q" horiz-adv-x="1585" d="M184 512v494q0 252 162.5 396t446.5 144t446 -144t162 -396v-494q0 -251 -162 -395t-446 -144t-446.5 144t-162.5 395zM307 512q0 -90 28 -162.5t74.5 -119.5t110.5 -78t131.5 -44.5t141.5 -13.5t141.5 13.5t131 44.5t110 78t74.5 119.5t28 162.5v494q0 113 -42 197 t-113 130.5t-153.5 69t-176.5 22.5q-74 0 -141.5 -13t-131.5 -44.5t-110.5 -78.5t-74.5 -119.5t-28 -163.5v-494zM498 -205q0 -25 18 -43t43 -18q6 0 10 2q64 10 146 10q184 0 311 -78q13 -8 33 -8q26 0 43.5 17.5t17.5 43.5q0 37 -30 52q-154 96 -375 96q-79 0 -164 -12 q-23 -3 -38 -21t-15 -41z" />
<glyph unicode="r" horiz-adv-x="1595" d="M256 53v1254q0 114 49.5 163.5t163.5 49.5h438q250 0 367 -130.5t117 -383.5q0 -213 -85.5 -338.5t-277.5 -153.5l338 -422q14 -21 14 -39q0 -26 -18 -43.5t-43 -17.5q-30 0 -49 22l-393 492h-498v-453q0 -26 -18 -43.5t-44 -17.5t-43.5 17.5t-17.5 43.5zM379 629h528 q198 0 279.5 89t81.5 288q0 206 -83.5 298.5t-277.5 92.5h-438q-54 0 -72 -18t-18 -72v-678z" />
<glyph unicode="s" horiz-adv-x="1439" d="M160 1114q0 118 43 203.5t122.5 134.5t179.5 71.5t226 22.5q124 0 245.5 -32.5t217.5 -92.5q29 -16 29 -53q0 -25 -18 -43t-44 -18q-18 0 -31 8q-173 106 -399 106q-106 0 -185.5 -16t-129 -43t-80 -67.5t-42 -83.5t-11.5 -97q0 -60 14.5 -101.5t43.5 -72t85.5 -52.5 t125.5 -37.5t179 -31.5q77 -12 128.5 -21.5t115 -26.5t104.5 -37t84 -51t67.5 -69.5t40 -92.5t15.5 -120q0 -428 -586 -428q-138 0 -274.5 34t-228.5 91q-31 17 -31 54q0 25 18 43t43 18q20 0 33 -8q77 -47 199 -77t241 -30q79 0 143 7.5t125.5 27.5t103 53t66.5 87.5 t25 127.5q0 55 -15 97.5t-45 71t-67 48.5t-87.5 33.5t-100 22.5t-111.5 19q-15 2 -22 3q-78 11 -130 20.5t-115.5 26t-104.5 36.5t-83.5 51t-66.5 69.5t-39.5 93t-15.5 121.5z" />
<glyph unicode="t" horiz-adv-x="1261" d="M51 1458q0 26 18 44t44 18h1036q25 0 43 -18t18 -44t-18 -43.5t-43 -17.5h-457v-1344q0 -26 -18 -43.5t-43 -17.5q-26 0 -44 17.5t-18 43.5v1344h-456q-26 0 -44 17.5t-18 43.5z" />
<glyph unicode="u" horiz-adv-x="1658" d="M236 520v946q0 26 17.5 44t43.5 18t43.5 -18t17.5 -44v-946q0 -103 22 -177.5t74 -132t145.5 -86t229.5 -28.5t229.5 28.5t145.5 86t74 132t22 177.5v946q0 26 18.5 44t43.5 18q26 0 43.5 -18t17.5 -44v-946q0 -128 -30 -224.5t-97 -171t-184.5 -113t-282.5 -38.5 q-133 0 -234.5 26t-169 72t-110.5 115t-61 150.5t-18 183.5z" />
<glyph unicode="v" horiz-adv-x="1527" d="M61 1466q0 26 18.5 44t43.5 18q41 0 57 -37l582 -1376h2l584 1376q16 37 57 37q25 0 43 -18t18 -44q0 -12 -6 -24l-583 -1374q-13 -35 -44.5 -55.5t-68.5 -20.5t-68.5 20.5t-46.5 55.5l-583 1374q-5 20 -5 24z" />
<glyph unicode="w" horiz-adv-x="1984" d="M72 1466q0 25 17.5 43.5t43.5 18.5q20 0 37 -12.5t23 -32.5l364 -1368h2l313 1161q10 41 44 66.5t77 25.5q42 0 75.5 -25.5t43.5 -66.5l313 -1161h2l365 1368q6 20 22.5 32.5t36.5 12.5q26 0 44 -18.5t18 -43.5q0 -10 -2 -16l-365 -1366q-10 -41 -43.5 -66.5t-75.5 -25.5 q-43 0 -76.5 25.5t-43.5 66.5l-314 1161h-2l-313 -1161q-10 -41 -43.5 -66.5t-75.5 -25.5q-43 0 -77 25.5t-44 66.5l-364 1366q-2 6 -2 16z" />
<glyph unicode="x" horiz-adv-x="1429" d="M92 53q0 21 12 39l533 668l-533 667q-12 18 -12 39q0 26 18.5 44t43.5 18q31 0 47 -23l514 -647l514 647q20 23 47 23q26 0 43.5 -18t17.5 -44q0 -21 -12 -39l-532 -667l532 -668q12 -18 12 -39q0 -26 -17.5 -43.5t-43.5 -17.5q-28 0 -47 22l-514 648l-514 -648 q-16 -22 -47 -22q-25 0 -43.5 17.5t-18.5 43.5z" />
<glyph unicode="y" horiz-adv-x="1335" d="M51 1466q0 26 18.5 44t43.5 18q35 0 51 -29l504 -809l503 809q16 29 52 29q26 0 43.5 -18t17.5 -44q0 -19 -8 -32l-547 -879v-502q0 -26 -17.5 -43.5t-43.5 -17.5q-25 0 -43.5 17.5t-18.5 43.5v502l-547 879q-8 13 -8 32z" />
<glyph unicode="z" horiz-adv-x="1392" d="M113 125q0 42 28 78l1006 1192v2h-942q-26 0 -44 17.5t-18 43.5t18 44t44 18h942q53 0 88 -37t35 -88q0 -41 -29 -78l-1005 -1192v-2h935q26 0 44 -18t18 -44t-18 -43.5t-44 -17.5h-935q-53 0 -88 37t-35 88z" />
<glyph unicode="{" d="M0 0v1450h1067v-1450h-1067zM102 238l369 528l-369 448v-976zM133 102h801l-402 574zM133 1348l399 -492l402 492h-801zM596 766l369 -528v976z" />
<glyph unicode="|" d="M0 0v1450h1067v-1450h-1067zM102 238l369 528l-369 448v-976zM133 102h801l-402 574zM133 1348l399 -492l402 492h-801zM596 766l369 -528v976z" />
<glyph unicode="}" d="M0 0v1450h1067v-1450h-1067zM102 238l369 528l-369 448v-976zM133 102h801l-402 574zM133 1348l399 -492l402 492h-801zM596 766l369 -528v976z" />
<glyph unicode="~" d="M0 0v1450h1067v-1450h-1067zM102 238l369 528l-369 448v-976zM133 102h801l-402 574zM133 1348l399 -492l402 492h-801zM596 766l369 -528v976z" />
<glyph unicode="&#xa1;" d="M0 0v1450h1067v-1450h-1067zM102 238l369 528l-369 448v-976zM133 102h801l-402 574zM133 1348l399 -492l402 492h-801zM596 766l369 -528v976z" />
<glyph unicode="&#xa2;" d="M0 0v1450h1067v-1450h-1067zM102 238l369 528l-369 448v-976zM133 102h801l-402 574zM133 1348l399 -492l402 492h-801zM596 766l369 -528v976z" />
<glyph unicode="&#xa3;" d="M0 0v1450h1067v-1450h-1067zM102 238l369 528l-369 448v-976zM133 102h801l-402 574zM133 1348l399 -492l402 492h-801zM596 766l369 -528v976z" />
<glyph unicode="&#xa4;" d="M0 0v1450h1067v-1450h-1067zM102 238l369 528l-369 448v-976zM133 102h801l-402 574zM133 1348l399 -492l402 492h-801zM596 766l369 -528v976z" />
<glyph unicode="&#xa5;" d="M0 0v1450h1067v-1450h-1067zM102 238l369 528l-369 448v-976zM133 102h801l-402 574zM133 1348l399 -492l402 492h-801zM596 766l369 -528v976z" />
<glyph unicode="&#xa6;" d="M0 0v1450h1067v-1450h-1067zM102 238l369 528l-369 448v-976zM133 102h801l-402 574zM133 1348l399 -492l402 492h-801zM596 766l369 -528v976z" />
<glyph unicode="&#xa7;" d="M0 0v1450h1067v-1450h-1067zM102 238l369 528l-369 448v-976zM133 102h801l-402 574zM133 1348l399 -492l402 492h-801zM596 766l369 -528v976z" />
<glyph unicode="&#xa8;" d="M0 0v1450h1067v-1450h-1067zM102 238l369 528l-369 448v-976zM133 102h801l-402 574zM133 1348l399 -492l402 492h-801zM596 766l369 -528v976z" />
<glyph unicode="&#xa9;" d="M0 0v1450h1067v-1450h-1067zM102 238l369 528l-369 448v-976zM133 102h801l-402 574zM133 1348l399 -492l402 492h-801zM596 766l369 -528v976z" />
<glyph unicode="&#xaa;" d="M0 0v1450h1067v-1450h-1067zM102 238l369 528l-369 448v-976zM133 102h801l-402 574zM133 1348l399 -492l402 492h-801zM596 766l369 -528v976z" />
<glyph unicode="&#xab;" d="M0 0v1450h1067v-1450h-1067zM102 238l369 528l-369 448v-976zM133 102h801l-402 574zM133 1348l399 -492l402 492h-801zM596 766l369 -528v976z" />
<glyph unicode="&#xac;" d="M0 0v1450h1067v-1450h-1067zM102 238l369 528l-369 448v-976zM133 102h801l-402 574zM133 1348l399 -492l402 492h-801zM596 766l369 -528v976z" />
<glyph unicode="&#xad;" horiz-adv-x="823" d="M113 616q0 26 17.5 44t43.5 18h475q26 0 44 -18t18 -44q0 -25 -18 -43t-44 -18h-475q-26 0 -43.5 18t-17.5 43z" />
<glyph unicode="&#xae;" d="M0 0v1450h1067v-1450h-1067zM102 238l369 528l-369 448v-976zM133 102h801l-402 574zM133 1348l399 -492l402 492h-801zM596 766l369 -528v976z" />
<glyph unicode="&#xaf;" d="M0 0v1450h1067v-1450h-1067zM102 238l369 528l-369 448v-976zM133 102h801l-402 574zM133 1348l399 -492l402 492h-801zM596 766l369 -528v976z" />
<glyph unicode="&#xb0;" d="M0 0v1450h1067v-1450h-1067zM102 238l369 528l-369 448v-976zM133 102h801l-402 574zM133 1348l399 -492l402 492h-801zM596 766l369 -528v976z" />
<glyph unicode="&#xb1;" d="M0 0v1450h1067v-1450h-1067zM102 238l369 528l-369 448v-976zM133 102h801l-402 574zM133 1348l399 -492l402 492h-801zM596 766l369 -528v976z" />
<glyph unicode="&#xb2;" d="M0 0v1450h1067v-1450h-1067zM102 238l369 528l-369 448v-976zM133 102h801l-402 574zM133 1348l399 -492l402 492h-801zM596 766l369 -528v976z" />
<glyph unicode="&#xb3;" d="M0 0v1450h1067v-1450h-1067zM102 238l369 528l-369 448v-976zM133 102h801l-402 574zM133 1348l399 -492l402 492h-801zM596 766l369 -528v976z" />
<glyph unicode="&#xb4;" d="M0 0v1450h1067v-1450h-1067zM102 238l369 528l-369 448v-976zM133 102h801l-402 574zM133 1348l399 -492l402 492h-801zM596 766l369 -528v976z" />
<glyph unicode="&#xb5;" d="M0 0v1450h1067v-1450h-1067zM102 238l369 528l-369 448v-976zM133 102h801l-402 574zM133 1348l399 -492l402 492h-801zM596 766l369 -528v976z" />
<glyph unicode="&#xb6;" d="M0 0v1450h1067v-1450h-1067zM102 238l369 528l-369 448v-976zM133 102h801l-402 574zM133 1348l399 -492l402 492h-801zM596 766l369 -528v976z" />
<glyph unicode="&#xb7;" d="M0 0v1450h1067v-1450h-1067zM102 238l369 528l-369 448v-976zM133 102h801l-402 574zM133 1348l399 -492l402 492h-801zM596 766l369 -528v976z" />
<glyph unicode="&#xb8;" d="M0 0v1450h1067v-1450h-1067zM102 238l369 528l-369 448v-976zM133 102h801l-402 574zM133 1348l399 -492l402 492h-801zM596 766l369 -528v976z" />
<glyph unicode="&#xb9;" d="M0 0v1450h1067v-1450h-1067zM102 238l369 528l-369 448v-976zM133 102h801l-402 574zM133 1348l399 -492l402 492h-801zM596 766l369 -528v976z" />
<glyph unicode="&#xba;" d="M0 0v1450h1067v-1450h-1067zM102 238l369 528l-369 448v-976zM133 102h801l-402 574zM133 1348l399 -492l402 492h-801zM596 766l369 -528v976z" />
<glyph unicode="&#xbb;" d="M0 0v1450h1067v-1450h-1067zM102 238l369 528l-369 448v-976zM133 102h801l-402 574zM133 1348l399 -492l402 492h-801zM596 766l369 -528v976z" />
<glyph unicode="&#xbc;" d="M0 0v1450h1067v-1450h-1067zM102 238l369 528l-369 448v-976zM133 102h801l-402 574zM133 1348l399 -492l402 492h-801zM596 766l369 -528v976z" />
<glyph unicode="&#xbd;" d="M0 0v1450h1067v-1450h-1067zM102 238l369 528l-369 448v-976zM133 102h801l-402 574zM133 1348l399 -492l402 492h-801zM596 766l369 -528v976z" />
<glyph unicode="&#xbe;" d="M0 0v1450h1067v-1450h-1067zM102 238l369 528l-369 448v-976zM133 102h801l-402 574zM133 1348l399 -492l402 492h-801zM596 766l369 -528v976z" />
<glyph unicode="&#xbf;" d="M0 0v1450h1067v-1450h-1067zM102 238l369 528l-369 448v-976zM133 102h801l-402 574zM133 1348l399 -492l402 492h-801zM596 766l369 -528v976z" />
<glyph unicode="&#xc0;" d="M0 0v1450h1067v-1450h-1067zM102 238l369 528l-369 448v-976zM133 102h801l-402 574zM133 1348l399 -492l402 492h-801zM596 766l369 -528v976z" />
<glyph unicode="&#xc1;" d="M0 0v1450h1067v-1450h-1067zM102 238l369 528l-369 448v-976zM133 102h801l-402 574zM133 1348l399 -492l402 492h-801zM596 766l369 -528v976z" />
<glyph unicode="&#xc2;" d="M0 0v1450h1067v-1450h-1067zM102 238l369 528l-369 448v-976zM133 102h801l-402 574zM133 1348l399 -492l402 492h-801zM596 766l369 -528v976z" />
<glyph unicode="&#xc3;" d="M0 0v1450h1067v-1450h-1067zM102 238l369 528l-369 448v-976zM133 102h801l-402 574zM133 1348l399 -492l402 492h-801zM596 766l369 -528v976z" />
<glyph unicode="&#xc4;" d="M0 0v1450h1067v-1450h-1067zM102 238l369 528l-369 448v-976zM133 102h801l-402 574zM133 1348l399 -492l402 492h-801zM596 766l369 -528v976z" />
<glyph unicode="&#xc5;" d="M0 0v1450h1067v-1450h-1067zM102 238l369 528l-369 448v-976zM133 102h801l-402 574zM133 1348l399 -492l402 492h-801zM596 766l369 -528v976z" />
<glyph unicode="&#xc6;" d="M0 0v1450h1067v-1450h-1067zM102 238l369 528l-369 448v-976zM133 102h801l-402 574zM133 1348l399 -492l402 492h-801zM596 766l369 -528v976z" />
<glyph unicode="&#xc7;" d="M0 0v1450h1067v-1450h-1067zM102 238l369 528l-369 448v-976zM133 102h801l-402 574zM133 1348l399 -492l402 492h-801zM596 766l369 -528v976z" />
<glyph unicode="&#xc8;" d="M0 0v1450h1067v-1450h-1067zM102 238l369 528l-369 448v-976zM133 102h801l-402 574zM133 1348l399 -492l402 492h-801zM596 766l369 -528v976z" />
<glyph unicode="&#xc9;" d="M0 0v1450h1067v-1450h-1067zM102 238l369 528l-369 448v-976zM133 102h801l-402 574zM133 1348l399 -492l402 492h-801zM596 766l369 -528v976z" />
<glyph unicode="&#xca;" d="M0 0v1450h1067v-1450h-1067zM102 238l369 528l-369 448v-976zM133 102h801l-402 574zM133 1348l399 -492l402 492h-801zM596 766l369 -528v976z" />
<glyph unicode="&#xcb;" d="M0 0v1450h1067v-1450h-1067zM102 238l369 528l-369 448v-976zM133 102h801l-402 574zM133 1348l399 -492l402 492h-801zM596 766l369 -528v976z" />
<glyph unicode="&#xcc;" d="M0 0v1450h1067v-1450h-1067zM102 238l369 528l-369 448v-976zM133 102h801l-402 574zM133 1348l399 -492l402 492h-801zM596 766l369 -528v976z" />
<glyph unicode="&#xcd;" d="M0 0v1450h1067v-1450h-1067zM102 238l369 528l-369 448v-976zM133 102h801l-402 574zM133 1348l399 -492l402 492h-801zM596 766l369 -528v976z" />
<glyph unicode="&#xce;" d="M0 0v1450h1067v-1450h-1067zM102 238l369 528l-369 448v-976zM133 102h801l-402 574zM133 1348l399 -492l402 492h-801zM596 766l369 -528v976z" />
<glyph unicode="&#xcf;" d="M0 0v1450h1067v-1450h-1067zM102 238l369 528l-369 448v-976zM133 102h801l-402 574zM133 1348l399 -492l402 492h-801zM596 766l369 -528v976z" />
<glyph unicode="&#xd0;" d="M0 0v1450h1067v-1450h-1067zM102 238l369 528l-369 448v-976zM133 102h801l-402 574zM133 1348l399 -492l402 492h-801zM596 766l369 -528v976z" />
<glyph unicode="&#xd1;" d="M0 0v1450h1067v-1450h-1067zM102 238l369 528l-369 448v-976zM133 102h801l-402 574zM133 1348l399 -492l402 492h-801zM596 766l369 -528v976z" />
<glyph unicode="&#xd2;" d="M0 0v1450h1067v-1450h-1067zM102 238l369 528l-369 448v-976zM133 102h801l-402 574zM133 1348l399 -492l402 492h-801zM596 766l369 -528v976z" />
<glyph unicode="&#xd3;" d="M0 0v1450h1067v-1450h-1067zM102 238l369 528l-369 448v-976zM133 102h801l-402 574zM133 1348l399 -492l402 492h-801zM596 766l369 -528v976z" />
<glyph unicode="&#xd4;" d="M0 0v1450h1067v-1450h-1067zM102 238l369 528l-369 448v-976zM133 102h801l-402 574zM133 1348l399 -492l402 492h-801zM596 766l369 -528v976z" />
<glyph unicode="&#xd5;" d="M0 0v1450h1067v-1450h-1067zM102 238l369 528l-369 448v-976zM133 102h801l-402 574zM133 1348l399 -492l402 492h-801zM596 766l369 -528v976z" />
<glyph unicode="&#xd6;" d="M0 0v1450h1067v-1450h-1067zM102 238l369 528l-369 448v-976zM133 102h801l-402 574zM133 1348l399 -492l402 492h-801zM596 766l369 -528v976z" />
<glyph unicode="&#xd7;" d="M0 0v1450h1067v-1450h-1067zM102 238l369 528l-369 448v-976zM133 102h801l-402 574zM133 1348l399 -492l402 492h-801zM596 766l369 -528v976z" />
<glyph unicode="&#xd8;" d="M0 0v1450h1067v-1450h-1067zM102 238l369 528l-369 448v-976zM133 102h801l-402 574zM133 1348l399 -492l402 492h-801zM596 766l369 -528v976z" />
<glyph unicode="&#xd9;" d="M0 0v1450h1067v-1450h-1067zM102 238l369 528l-369 448v-976zM133 102h801l-402 574zM133 1348l399 -492l402 492h-801zM596 766l369 -528v976z" />
<glyph unicode="&#xda;" d="M0 0v1450h1067v-1450h-1067zM102 238l369 528l-369 448v-976zM133 102h801l-402 574zM133 1348l399 -492l402 492h-801zM596 766l369 -528v976z" />
<glyph unicode="&#xdb;" d="M0 0v1450h1067v-1450h-1067zM102 238l369 528l-369 448v-976zM133 102h801l-402 574zM133 1348l399 -492l402 492h-801zM596 766l369 -528v976z" />
<glyph unicode="&#xdc;" d="M0 0v1450h1067v-1450h-1067zM102 238l369 528l-369 448v-976zM133 102h801l-402 574zM133 1348l399 -492l402 492h-801zM596 766l369 -528v976z" />
<glyph unicode="&#xdd;" d="M0 0v1450h1067v-1450h-1067zM102 238l369 528l-369 448v-976zM133 102h801l-402 574zM133 1348l399 -492l402 492h-801zM596 766l369 -528v976z" />
<glyph unicode="&#xde;" d="M0 0v1450h1067v-1450h-1067zM102 238l369 528l-369 448v-976zM133 102h801l-402 574zM133 1348l399 -492l402 492h-801zM596 766l369 -528v976z" />
<glyph unicode="&#xdf;" d="M0 0v1450h1067v-1450h-1067zM102 238l369 528l-369 448v-976zM133 102h801l-402 574zM133 1348l399 -492l402 492h-801zM596 766l369 -528v976z" />
<glyph unicode="&#xe0;" d="M0 0v1450h1067v-1450h-1067zM102 238l369 528l-369 448v-976zM133 102h801l-402 574zM133 1348l399 -492l402 492h-801zM596 766l369 -528v976z" />
<glyph unicode="&#xe1;" d="M0 0v1450h1067v-1450h-1067zM102 238l369 528l-369 448v-976zM133 102h801l-402 574zM133 1348l399 -492l402 492h-801zM596 766l369 -528v976z" />
<glyph unicode="&#xe2;" d="M0 0v1450h1067v-1450h-1067zM102 238l369 528l-369 448v-976zM133 102h801l-402 574zM133 1348l399 -492l402 492h-801zM596 766l369 -528v976z" />
<glyph unicode="&#xe3;" d="M0 0v1450h1067v-1450h-1067zM102 238l369 528l-369 448v-976zM133 102h801l-402 574zM133 1348l399 -492l402 492h-801zM596 766l369 -528v976z" />
<glyph unicode="&#xe4;" d="M0 0v1450h1067v-1450h-1067zM102 238l369 528l-369 448v-976zM133 102h801l-402 574zM133 1348l399 -492l402 492h-801zM596 766l369 -528v976z" />
<glyph unicode="&#xe5;" d="M0 0v1450h1067v-1450h-1067zM102 238l369 528l-369 448v-976zM133 102h801l-402 574zM133 1348l399 -492l402 492h-801zM596 766l369 -528v976z" />
<glyph unicode="&#xe6;" d="M0 0v1450h1067v-1450h-1067zM102 238l369 528l-369 448v-976zM133 102h801l-402 574zM133 1348l399 -492l402 492h-801zM596 766l369 -528v976z" />
<glyph unicode="&#xe7;" d="M0 0v1450h1067v-1450h-1067zM102 238l369 528l-369 448v-976zM133 102h801l-402 574zM133 1348l399 -492l402 492h-801zM596 766l369 -528v976z" />
<glyph unicode="&#xe8;" d="M0 0v1450h1067v-1450h-1067zM102 238l369 528l-369 448v-976zM133 102h801l-402 574zM133 1348l399 -492l402 492h-801zM596 766l369 -528v976z" />
<glyph unicode="&#xe9;" d="M0 0v1450h1067v-1450h-1067zM102 238l369 528l-369 448v-976zM133 102h801l-402 574zM133 1348l399 -492l402 492h-801zM596 766l369 -528v976z" />
<glyph unicode="&#xea;" d="M0 0v1450h1067v-1450h-1067zM102 238l369 528l-369 448v-976zM133 102h801l-402 574zM133 1348l399 -492l402 492h-801zM596 766l369 -528v976z" />
<glyph unicode="&#xeb;" d="M0 0v1450h1067v-1450h-1067zM102 238l369 528l-369 448v-976zM133 102h801l-402 574zM133 1348l399 -492l402 492h-801zM596 766l369 -528v976z" />
<glyph unicode="&#xec;" d="M0 0v1450h1067v-1450h-1067zM102 238l369 528l-369 448v-976zM133 102h801l-402 574zM133 1348l399 -492l402 492h-801zM596 766l369 -528v976z" />
<glyph unicode="&#xed;" d="M0 0v1450h1067v-1450h-1067zM102 238l369 528l-369 448v-976zM133 102h801l-402 574zM133 1348l399 -492l402 492h-801zM596 766l369 -528v976z" />
<glyph unicode="&#xee;" d="M0 0v1450h1067v-1450h-1067zM102 238l369 528l-369 448v-976zM133 102h801l-402 574zM133 1348l399 -492l402 492h-801zM596 766l369 -528v976z" />
<glyph unicode="&#xef;" d="M0 0v1450h1067v-1450h-1067zM102 238l369 528l-369 448v-976zM133 102h801l-402 574zM133 1348l399 -492l402 492h-801zM596 766l369 -528v976z" />
<glyph unicode="&#xf0;" d="M0 0v1450h1067v-1450h-1067zM102 238l369 528l-369 448v-976zM133 102h801l-402 574zM133 1348l399 -492l402 492h-801zM596 766l369 -528v976z" />
<glyph unicode="&#xf1;" d="M0 0v1450h1067v-1450h-1067zM102 238l369 528l-369 448v-976zM133 102h801l-402 574zM133 1348l399 -492l402 492h-801zM596 766l369 -528v976z" />
<glyph unicode="&#xf2;" d="M0 0v1450h1067v-1450h-1067zM102 238l369 528l-369 448v-976zM133 102h801l-402 574zM133 1348l399 -492l402 492h-801zM596 766l369 -528v976z" />
<glyph unicode="&#xf3;" d="M0 0v1450h1067v-1450h-1067zM102 238l369 528l-369 448v-976zM133 102h801l-402 574zM133 1348l399 -492l402 492h-801zM596 766l369 -528v976z" />
<glyph unicode="&#xf4;" d="M0 0v1450h1067v-1450h-1067zM102 238l369 528l-369 448v-976zM133 102h801l-402 574zM133 1348l399 -492l402 492h-801zM596 766l369 -528v976z" />
<glyph unicode="&#xf5;" d="M0 0v1450h1067v-1450h-1067zM102 238l369 528l-369 448v-976zM133 102h801l-402 574zM133 1348l399 -492l402 492h-801zM596 766l369 -528v976z" />
<glyph unicode="&#xf6;" d="M0 0v1450h1067v-1450h-1067zM102 238l369 528l-369 448v-976zM133 102h801l-402 574zM133 1348l399 -492l402 492h-801zM596 766l369 -528v976z" />
<glyph unicode="&#xf7;" d="M0 0v1450h1067v-1450h-1067zM102 238l369 528l-369 448v-976zM133 102h801l-402 574zM133 1348l399 -492l402 492h-801zM596 766l369 -528v976z" />
<glyph unicode="&#xf8;" d="M0 0v1450h1067v-1450h-1067zM102 238l369 528l-369 448v-976zM133 102h801l-402 574zM133 1348l399 -492l402 492h-801zM596 766l369 -528v976z" />
<glyph unicode="&#xf9;" d="M0 0v1450h1067v-1450h-1067zM102 238l369 528l-369 448v-976zM133 102h801l-402 574zM133 1348l399 -492l402 492h-801zM596 766l369 -528v976z" />
<glyph unicode="&#xfa;" d="M0 0v1450h1067v-1450h-1067zM102 238l369 528l-369 448v-976zM133 102h801l-402 574zM133 1348l399 -492l402 492h-801zM596 766l369 -528v976z" />
<glyph unicode="&#xfb;" d="M0 0v1450h1067v-1450h-1067zM102 238l369 528l-369 448v-976zM133 102h801l-402 574zM133 1348l399 -492l402 492h-801zM596 766l369 -528v976z" />
<glyph unicode="&#xfc;" d="M0 0v1450h1067v-1450h-1067zM102 238l369 528l-369 448v-976zM133 102h801l-402 574zM133 1348l399 -492l402 492h-801zM596 766l369 -528v976z" />
<glyph unicode="&#xfd;" d="M0 0v1450h1067v-1450h-1067zM102 238l369 528l-369 448v-976zM133 102h801l-402 574zM133 1348l399 -492l402 492h-801zM596 766l369 -528v976z" />
<glyph unicode="&#xfe;" d="M0 0v1450h1067v-1450h-1067zM102 238l369 528l-369 448v-976zM133 102h801l-402 574zM133 1348l399 -492l402 492h-801zM596 766l369 -528v976z" />
<glyph unicode="&#xff;" d="M0 0v1450h1067v-1450h-1067zM102 238l369 528l-369 448v-976zM133 102h801l-402 574zM133 1348l399 -492l402 492h-801zM596 766l369 -528v976z" />
<glyph unicode="&#x152;" d="M0 0v1450h1067v-1450h-1067zM102 238l369 528l-369 448v-976zM133 102h801l-402 574zM133 1348l399 -492l402 492h-801zM596 766l369 -528v976z" />
<glyph unicode="&#x153;" d="M0 0v1450h1067v-1450h-1067zM102 238l369 528l-369 448v-976zM133 102h801l-402 574zM133 1348l399 -492l402 492h-801zM596 766l369 -528v976z" />
<glyph unicode="&#x178;" d="M0 0v1450h1067v-1450h-1067zM102 238l369 528l-369 448v-976zM133 102h801l-402 574zM133 1348l399 -492l402 492h-801zM596 766l369 -528v976z" />
<glyph unicode="&#x2c6;" d="M0 0v1450h1067v-1450h-1067zM102 238l369 528l-369 448v-976zM133 102h801l-402 574zM133 1348l399 -492l402 492h-801zM596 766l369 -528v976z" />
<glyph unicode="&#x2dc;" d="M0 0v1450h1067v-1450h-1067zM102 238l369 528l-369 448v-976zM133 102h801l-402 574zM133 1348l399 -492l402 492h-801zM596 766l369 -528v976z" />
<glyph unicode="&#x2000;" horiz-adv-x="859" />
<glyph unicode="&#x2001;" horiz-adv-x="1718" />
<glyph unicode="&#x2002;" horiz-adv-x="859" />
<glyph unicode="&#x2003;" horiz-adv-x="1718" />
<glyph unicode="&#x2004;" horiz-adv-x="572" />
<glyph unicode="&#x2005;" horiz-adv-x="429" />
<glyph unicode="&#x2006;" horiz-adv-x="286" />
<glyph unicode="&#x2007;" horiz-adv-x="286" />
<glyph unicode="&#x2008;" horiz-adv-x="214" />
<glyph unicode="&#x2009;" horiz-adv-x="343" />
<glyph unicode="&#x200a;" horiz-adv-x="95" />
<glyph unicode="&#x2010;" horiz-adv-x="823" d="M113 616q0 26 17.5 44t43.5 18h475q26 0 44 -18t18 -44q0 -25 -18 -43t-44 -18h-475q-26 0 -43.5 18t-17.5 43z" />
<glyph unicode="&#x2011;" horiz-adv-x="823" d="M113 616q0 26 17.5 44t43.5 18h475q26 0 44 -18t18 -44q0 -25 -18 -43t-44 -18h-475q-26 0 -43.5 18t-17.5 43z" />
<glyph unicode="&#x2012;" horiz-adv-x="823" d="M113 616q0 26 17.5 44t43.5 18h475q26 0 44 -18t18 -44q0 -25 -18 -43t-44 -18h-475q-26 0 -43.5 18t-17.5 43z" />
<glyph unicode="&#x2013;" d="M0 0v1450h1067v-1450h-1067zM102 238l369 528l-369 448v-976zM133 102h801l-402 574zM133 1348l399 -492l402 492h-801zM596 766l369 -528v976z" />
<glyph unicode="&#x2014;" d="M0 0v1450h1067v-1450h-1067zM102 238l369 528l-369 448v-976zM133 102h801l-402 574zM133 1348l399 -492l402 492h-801zM596 766l369 -528v976z" />
<glyph unicode="&#x2018;" horiz-adv-x="411" d="M119 1325v61q0 64 32 106t58 42q13 0 22 -9t9 -20q0 -15 -15 -24q-32 -16 -35 -62q2 0 7.5 1t7.5 1q88 0 88 -96t-88 -96q-86 0 -86 96z" />
<glyph unicode="&#x2019;" horiz-adv-x="411" d="M119 1432q0 96 86 96q88 0 88 -96v-62q0 -64 -32 -105.5t-58 -41.5q-14 0 -23.5 8t-9.5 20q0 17 16 23q32 19 35 61h-16q-86 0 -86 97z" />
<glyph unicode="&#x201a;" horiz-adv-x="411" d="M119 88q0 96 86 96q88 0 88 -96v-61q0 -64 -32 -106t-58 -42q-14 0 -23.5 8.5t-9.5 20.5q0 16 16 22q32 19 35 62h-16q-86 0 -86 96z" />
<glyph unicode="&#x201c;" horiz-adv-x="688" d="M119 1325v61q0 64 32 106t58 42q13 0 22 -9t9 -20q0 -15 -15 -24q-32 -16 -35 -62q2 0 7.5 1t7.5 1q88 0 88 -96t-88 -96q-86 0 -86 96zM395 1325v61q0 64 32 106t58 42q13 0 22 -9t9 -20q0 -16 -14 -24q-32 -16 -35 -62q2 0 7 1t7 1q88 0 88 -96t-88 -96q-86 0 -86 96z " />
<glyph unicode="&#x201d;" horiz-adv-x="688" d="M119 1432q0 96 86 96q88 0 88 -96v-62q0 -64 -32 -105.5t-58 -41.5q-14 0 -23.5 8t-9.5 20q0 17 16 23q32 19 35 61h-16q-86 0 -86 97zM395 1432q0 96 86 96q88 0 88 -96v-62q0 -64 -32 -105.5t-58 -41.5q-14 0 -23.5 8t-9.5 20q0 16 17 23q32 19 35 61h-17q-86 0 -86 97 z" />
<glyph unicode="&#x201e;" horiz-adv-x="688" d="M119 88q0 96 86 96q88 0 88 -96v-61q0 -64 -32 -106t-58 -42q-14 0 -23.5 8.5t-9.5 20.5q0 16 16 22q32 19 35 62h-16q-86 0 -86 96zM395 88q0 96 86 96q88 0 88 -96v-61q0 -64 -32 -106t-58 -42q-14 0 -23.5 8.5t-9.5 20.5q0 15 17 22q32 19 35 62h-17q-86 0 -86 96z " />
<glyph unicode="&#x2022;" d="M0 0v1450h1067v-1450h-1067zM102 238l369 528l-369 448v-976zM133 102h801l-402 574zM133 1348l399 -492l402 492h-801zM596 766l369 -528v976z" />
<glyph unicode="&#x2026;" d="M0 0v1450h1067v-1450h-1067zM102 238l369 528l-369 448v-976zM133 102h801l-402 574zM133 1348l399 -492l402 492h-801zM596 766l369 -528v976z" />
<glyph unicode="&#x202f;" horiz-adv-x="343" />
<glyph unicode="&#x2039;" d="M0 0v1450h1067v-1450h-1067zM102 238l369 528l-369 448v-976zM133 102h801l-402 574zM133 1348l399 -492l402 492h-801zM596 766l369 -528v976z" />
<glyph unicode="&#x203a;" d="M0 0v1450h1067v-1450h-1067zM102 238l369 528l-369 448v-976zM133 102h801l-402 574zM133 1348l399 -492l402 492h-801zM596 766l369 -528v976z" />
<glyph unicode="&#x205f;" horiz-adv-x="429" />
<glyph unicode="&#x20ac;" horiz-adv-x="1415" d="M129 586q0 21 15 36t36 15h90v172h-90q-22 0 -36.5 14.5t-14.5 36.5t14.5 36.5t36.5 14.5h90v29q0 246 132 388t401 142q222 0 399 -116q29 -16 29 -51q0 -25 -18 -43.5t-44 -18.5q-15 0 -32 10q-151 97 -334 97q-66 0 -120.5 -9.5t-110 -36.5t-93.5 -71t-62 -118.5 t-24 -172.5v-29h512q22 0 36.5 -14.5t14.5 -36.5t-14.5 -36.5t-36.5 -14.5h-512v-172h512q21 0 36 -15t15 -36q0 -22 -14.5 -36.5t-36.5 -14.5h-512v-31q0 -408 410 -408q183 0 334 97q13 10 32 10q26 0 44 -18.5t18 -43.5q0 -31 -27 -51q-183 -117 -401 -117 q-139 0 -242.5 39t-166.5 111t-93.5 167t-30.5 214v31h-90q-22 0 -36.5 14.5t-14.5 36.5z" />
<glyph unicode="&#x2122;" d="M0 0v1450h1067v-1450h-1067zM102 238l369 528l-369 448v-976zM133 102h801l-402 574zM133 1348l399 -492l402 492h-801zM596 766l369 -528v976z" />
<glyph unicode="&#x25fc;" horiz-adv-x="1525" d="M0 0v1526h1526v-1526h-1526z" />
<glyph unicode="&#xfb01;" d="M0 0v1450h1067v-1450h-1067zM102 238l369 528l-369 448v-976zM133 102h801l-402 574zM133 1348l399 -492l402 492h-801zM596 766l369 -528v976z" />
<glyph unicode="&#xfb02;" d="M0 0v1450h1067v-1450h-1067zM102 238l369 528l-369 448v-976zM133 102h801l-402 574zM133 1348l399 -492l402 492h-801zM596 766l369 -528v976z" />
</font>
</defs>
</svg>
