<?xml version="1.0" encoding="utf-8"?>
<!-- Generator: Adobe Illustrator 21.0.0, SVG Export Plug-In . SVG Version: 6.00 Build 0)  -->
<svg version="1.1" id="Layer_1" xmlns="http://www.w3.org/2000/svg" xmlns:xlink="http://www.w3.org/1999/xlink" x="0px" y="0px"
	 viewBox="0 0 306.1 123.7" style="enable-background:new 0 0 306.1 123.7;" xml:space="preserve">
<style type="text/css">
	.st0{fill:#040D24;}
	.st1{fill:#93488B;}
	.st2{fill:#CFFF9E;}
	.st3{fill:#26CFCE;}
	.st4{opacity:0.5;fill:#FFFFFF;}
	.st5{fill:#FFFFFF;}
	.st6{opacity:0.35;fill:#B52B85;}
	.st7{fill:#B52B85;}
</style>
<rect x="6.143" y="186.208" class="st0" width="344" height="157"/>
<circle class="st1" cx="101.461" cy="28.492" r="8.809"/>
<circle class="st2" cx="12.196" cy="102.925" r="10.901"/>
<circle class="st3" cx="272.643" cy="21.328" r="9.787"/>
<g>
	<circle class="st4" cx="30.072" cy="29.496" r="27.76"/>
	<circle class="st5" cx="30.166" cy="29.59" r="13.792"/>
	<circle class="st4" cx="30.463" cy="29.59" r="21.797"/>
</g>
<g>
	<circle class="st4" cx="84.072" cy="90.496" r="29.76"/>
	<circle class="st5" cx="84.173" cy="90.596" r="14.786"/>
	<circle class="st4" cx="84.491" cy="90.596" r="23.368"/>
</g>
<g>
	<circle class="st4" cx="276.073" cy="93.496" r="27.76"/>
	<circle class="st5" cx="276.166" cy="93.59" r="13.792"/>
	<circle class="st4" cx="276.463" cy="93.59" r="21.797"/>
</g>
<g>
	<circle class="st6" cx="164.448" cy="75.612" r="24.385"/>
	<circle class="st6" cx="164.791" cy="75.694" r="19.147"/>
	<circle class="st7" cx="164.53" cy="75.694" r="12.115"/>
</g>
<g>
	<circle class="st4" cx="199.59" cy="42.076" r="37.278"/>
	<circle class="st5" cx="199.715" cy="42.201" r="18.521"/>
	<circle class="st4" cx="200.114" cy="42.201" r="29.271"/>
</g>
</svg>
