<?xml version="1.0" encoding="utf-8"?>
<!-- Generator: Adobe Illustrator 19.2.1, SVG Export Plug-In . SVG Version: 6.00 Build 0)  -->
<svg version="1.1" id="Layer_1" xmlns="http://www.w3.org/2000/svg" xmlns:xlink="http://www.w3.org/1999/xlink" x="0px" y="0px"
	 viewBox="0 0 1289.9 1027.4" style="enable-background:new 0 0 1289.9 1027.4;" xml:space="preserve">
<style type="text/css">
	.st0{opacity:0.3;fill:url(#SVGID_1_);}
	.st1{opacity:0.3;fill:url(#SVGID_2_);}
	.st2{opacity:0.3;fill:url(#SVGID_3_);}
</style>
<g>
	
		<linearGradient id="SVGID_1_" gradientUnits="userSpaceOnUse" x1="-10718.8682" y1="1094.014" x2="-9661.8926" y2="1094.014" gradientTransform="matrix(-0.9527 0.3038 -0.3038 -0.9527 -8500.9814 4577.7949)">
		<stop  offset="0" style="stop-color:#D3D3D3;stop-opacity:0.4"/>
		<stop  offset="0.449" style="stop-color:#D1D1D1;stop-opacity:0.2"/>
	</linearGradient>
	<path class="st0" d="M1289.9,0L180.5,0C394.8,48.2,803,126.4,803,126.4l153.4,33.5c172.8,37.7,293.5,212.5,245.7,382.9
		c-34.7,123.4-167.6,484.7-167.6,484.7l70.9,0l184.4-302.7L1289.9,0z"/>
	
		<linearGradient id="SVGID_2_" gradientUnits="userSpaceOnUse" x1="115.551" y1="1793.3007" x2="1187.8826" y2="1793.3007" gradientTransform="matrix(0.9747 -0.2236 0.2236 0.9747 -593.2469 -1041.3579)">
		<stop  offset="0" style="stop-color:#D3D3D3;stop-opacity:0.4"/>
		<stop  offset="0.449" style="stop-color:#D1D1D1;stop-opacity:0.2"/>
	</linearGradient>
	<path class="st1" d="M363.8,793.4c-169.1-52-274-235.9-213-401.9C187.5,291.5,319.1,0,319.1,0L195.9,0L0,96.1l0,931.4l1100.2,0
		L363.8,793.4z"/>
	
		<linearGradient id="SVGID_3_" gradientUnits="userSpaceOnUse" x1="75.4753" y1="539.0047" x2="605.8099" y2="539.0047" gradientTransform="matrix(1 -2.223798e-003 2.223798e-003 1 -77.8144 -24.4447)">
		<stop  offset="0" style="stop-color:#D3D3D3;stop-opacity:0.4"/>
		<stop  offset="0.449" style="stop-color:#D1D1D1;stop-opacity:0.2"/>
	</linearGradient>
	<path class="st2" d="M523.1,1023.4L260.2,876.2l-104.6-60.1C71,767.6,16.8,685.7,0,596.3c0,0,0,0,0,0l0-119.7
		c0,0,17.2-68.6,36.9-99.5C98.6,279.9,301,0,301,0L179.3,0L67.9,0L0,21.8l0,1005.6l530.3,0C530.3,1027.4,525.5,1024.8,523.1,1023.4z
		"/>
</g>
</svg>
