<?xml version="1.0" encoding="utf-8"?>
<!-- Generator: Adobe Illustrator 19.2.1, SVG Export Plug-In . SVG Version: 6.00 Build 0)  -->
<svg version="1.1" id="Layer_1" xmlns="http://www.w3.org/2000/svg" xmlns:xlink="http://www.w3.org/1999/xlink" x="0px" y="0px"
	 viewBox="0 0 27.9 28.6" style="enable-background:new 0 0 27.9 28.6;" xml:space="preserve">
<style type="text/css">
	.st0{fill:#FFFFFF;}
</style>
<g>
	<path class="st0" d="M1.7,17.1l-1-1c-0.9-0.9-0.9-2.4,0-3.3l1-1c0.9-0.9,2.4-0.9,3.3,0l1,1C7,13.7,7,15.2,6,16.1l-1,1
		C4.1,18.1,2.6,18.1,1.7,17.1z"/>
	<path class="st0" d="M12.3,17.1l-1-1c-0.9-0.9-0.9-2.4,0-3.3l1-1c0.9-0.9,2.4-0.9,3.3,0l1,1c0.9,0.9,0.9,2.4,0,3.3l-1,1
		C14.7,18.1,13.2,18.1,12.3,17.1z"/>
	<path class="st0" d="M22.8,17.2l-1-1c-0.9-0.9-0.9-2.4,0-3.3l1-1c0.9-0.9,2.4-0.9,3.3,0l1,1c0.9,0.9,0.9,2.4,0,3.3l-1,1
		C25.2,18.2,23.7,18.2,22.8,17.2z"/>
	<path class="st0" d="M22.8,6.1l-1-1c-0.9-0.9-0.9-2.4,0-3.3l1-1c0.9-0.9,2.4-0.9,3.3,0l1,1c0.9,0.9,0.9,2.4,0,3.3l-1,1
		C25.2,7.1,23.7,7.1,22.8,6.1z"/>
	<path class="st0" d="M1.7,6l-1-1c-0.9-0.9-0.9-2.4,0-3.3l1-1c0.9-0.9,2.4-0.9,3.3,0l1,1C7,2.6,7,4.1,6,5L5,6C4.1,7,2.6,7,1.7,6z"/>
	<path class="st0" d="M12.3,6.1l-1-1c-0.9-0.9-0.9-2.4,0-3.3l1-1c0.9-0.9,2.4-0.9,3.3,0l1,1c0.9,0.9,0.9,2.4,0,3.3l-1,1
		C14.7,7.1,13.2,7.1,12.3,6.1z"/>
	<path class="st0" d="M1.7,27.8l-1-1c-0.9-0.9-0.9-2.4,0-3.3l1-1c0.9-0.9,2.4-0.9,3.3,0l1,1C7,24.4,7,25.9,6,26.8l-1,1
		C4.1,28.7,2.6,28.7,1.7,27.8z"/>
	<path class="st0" d="M12.3,27.8l-1-1c-0.9-0.9-0.9-2.4,0-3.3l1-1c0.9-0.9,2.4-0.9,3.3,0l1,1c0.9,0.9,0.9,2.4,0,3.3l-1,1
		C14.7,28.7,13.2,28.7,12.3,27.8z"/>
	<path class="st0" d="M22.8,27.9l-1-1c-0.9-0.9-0.9-2.4,0-3.3l1-1c0.9-0.9,2.4-0.9,3.3,0l1,1c0.9,0.9,0.9,2.4,0,3.3l-1,1
		C25.2,28.8,23.7,28.8,22.8,27.9z"/>
</g>
</svg>
