<?xml version="1.0" encoding="utf-8"?>
<!-- Generator: Adobe Illustrator 19.2.1, SVG Export Plug-In . SVG Version: 6.00 Build 0)  -->
<svg version="1.1" id="Layer_1" xmlns="http://www.w3.org/2000/svg" xmlns:xlink="http://www.w3.org/1999/xlink" x="0px" y="0px"
	 viewBox="0 0 24 32" style="enable-background:new 0 0 24 32;" xml:space="preserve">
<style type="text/css">
	.st0{fill:#D3D3D3;}
</style>
<path class="st0" d="M21.6,11H21V5.7C21,2.5,18.5,0,15.4,0H8.6C5.5,0,3,2.5,3,5.7V11H2.4C1.1,11,0,12.1,0,13.4v11.1
	C0,28.6,3.4,32,7.5,32h9c4.1,0,7.5-3.4,7.5-7.5V13.4C24,12.1,22.9,11,21.6,11z M4.8,6.1c0-2.5,2-4.5,4.5-4.5h5.4
	c2.5,0,4.5,2,4.5,4.5V11H4.8V6.1z M14.7,21.2l-1,1v2.5c0,0.9-0.8,1.7-1.7,1.7c-0.9,0-1.7-0.8-1.7-1.7v-2.5l-1-1
	c-0.9-0.9-0.9-2.4,0-3.4l1-1c0.9-0.9,2.4-0.9,3.4,0l1,1C15.6,18.8,15.6,20.3,14.7,21.2z"/>
</svg>
