<?xml version="1.0" encoding="utf-8"?>
<!-- Generator: Adobe Illustrator 19.2.1, SVG Export Plug-In . SVG Version: 6.00 Build 0)  -->
<svg version="1.1" id="Layer_1" xmlns="http://www.w3.org/2000/svg" xmlns:xlink="http://www.w3.org/1999/xlink" x="0px" y="0px"
	 viewBox="0 0 28.463 28.463" style="enable-background:new 0 0 28.463 28.463;" xml:space="preserve">
<style type="text/css">
	.st0{fill:#FFFFFF;}
</style>
<path class="st0" d="M27.667,12.228l-2.357-0.22c-0.293-1.468-0.871-2.833-1.673-4.036l1.512-1.824c0.311-0.311,0.311-0.815,0-1.126
	l-1.708-1.708c-0.311-0.311-0.815-0.311-1.126,0l-1.823,1.512c-1.203-0.802-2.568-1.38-4.036-1.673l-0.22-2.357
	c0-0.44-0.356-0.796-0.796-0.796h-2.415c-0.44,0-0.796,0.356-0.796,0.796l-0.22,2.357c-1.468,0.293-2.833,0.871-4.036,1.673
	L6.148,3.314c-0.311-0.311-0.815-0.311-1.126,0L3.314,5.022c-0.311,0.311-0.311,0.815,0,1.126l1.512,1.824
	c-0.802,1.203-1.38,2.568-1.673,4.036l-2.357,0.22C0.356,12.228,0,12.584,0,13.024v2.415c0,0.44,0.356,0.796,0.796,0.796l2.357,0.22
	c0.293,1.468,0.871,2.833,1.673,4.036l-1.512,1.823c-0.311,0.311-0.311,0.815,0,1.126l1.708,1.708c0.311,0.311,0.815,0.311,1.126,0
	l1.824-1.512c1.203,0.802,2.568,1.38,4.036,1.673l0.22,2.357c0,0.44,0.356,0.796,0.796,0.796h2.415c0.439,0,0.796-0.356,0.796-0.796
	l0.22-2.357c1.468-0.293,2.833-0.871,4.036-1.673l1.823,1.512c0.311,0.311,0.815,0.311,1.126,0l1.708-1.708
	c0.311-0.311,0.311-0.815,0-1.126l-1.512-1.823c0.802-1.203,1.38-2.568,1.673-4.036l2.357-0.22c0.44,0,0.796-0.356,0.796-0.796
	v-2.415C28.463,12.584,28.106,12.228,27.667,12.228z M14.232,19.08c-2.678,0-4.849-2.171-4.849-4.849
	c0-2.678,2.171-4.849,4.849-4.849c2.678,0,4.849,2.171,4.849,4.849C19.08,16.909,16.909,19.08,14.232,19.08z"/>
</svg>
